<svg width="24" height="24" viewBox="0 0 24 24" fill="none" xmlns="http://www.w3.org/2000/svg">
<path d="M16 14H8C6.93913 14 5.92172 14.4214 5.17157 15.1716C4.42143 15.9217 4 16.9391 4 18C4 18.5304 4.21071 19.0391 4.58579 19.4142C4.96086 19.7893 5.46957 20 6 20H13" stroke="#A934BD" stroke-width="1.5" stroke-linejoin="round"/>
<path d="M12 10C13.6569 10 15 8.65685 15 7C15 5.34315 13.6569 4 12 4C10.3431 4 9 5.34315 9 7C9 8.65685 10.3431 10 12 10Z" stroke="#A934BD" stroke-width="1.5"/>
<path fill-rule="evenodd" clip-rule="evenodd" d="M17.9934 14.8999H19.0048C19.0384 14.8999 19.0705 14.9125 19.0942 14.935C19.1179 14.9575 19.1312 14.988 19.1312 15.0199C19.1312 16.1045 20.3682 16.783 21.3576 16.2401C21.3865 16.2246 21.4206 16.2205 21.4526 16.2287C21.4847 16.2369 21.512 16.2567 21.5288 16.2839L22.0355 17.1166C22.052 17.1441 22.0564 17.1766 22.0478 17.2072C22.0392 17.2378 22.0182 17.2638 21.9894 17.2798C21 17.8221 21 19.1779 21.9894 19.7208C22.018 19.7368 22.0389 19.7627 22.0475 19.7932C22.0561 19.8236 22.0518 19.856 22.0355 19.8834L21.5288 20.7161C21.512 20.7433 21.4847 20.7631 21.4526 20.7713C21.4206 20.7795 21.3865 20.7754 21.3576 20.7599C20.3682 20.217 19.1312 20.8949 19.1312 21.9789C19.1312 22.0107 19.118 22.0411 19.0944 22.0636C19.0709 22.0861 19.0389 22.0988 19.0055 22.0989H17.994C17.9605 22.0989 17.9284 22.0863 17.9047 22.0638C17.881 22.0413 17.8676 22.0108 17.8676 21.9789C17.8676 20.8943 16.6306 20.2164 15.6413 20.7587C15.6123 20.7744 15.578 20.7786 15.5458 20.7704C15.5137 20.7622 15.4862 20.7422 15.4694 20.7149L14.964 19.8822C14.9476 19.8549 14.9432 19.8225 14.9517 19.7921C14.9602 19.7617 14.981 19.7357 15.0095 19.7196C15.9989 19.1767 15.9989 17.8209 15.0095 17.278C14.981 17.262 14.9603 17.2362 14.9517 17.2059C14.943 17.1756 14.9472 17.1434 14.9634 17.116L15.4694 16.2827C15.4863 16.2555 15.5138 16.2356 15.546 16.2276C15.5782 16.2195 15.6124 16.2238 15.6413 16.2395C16.6306 16.7824 17.8676 16.1039 17.8676 15.0193C17.8676 14.9533 17.9239 14.8999 17.9934 14.8999ZM16.92 15.0199C16.92 14.4559 17.4001 14 17.9934 14H19.0048C19.5987 14 20.0789 14.4559 20.0789 15.0199C20.0791 15.1092 20.104 15.197 20.1511 15.2743C20.1983 15.3517 20.266 15.4159 20.3475 15.4605C20.429 15.5052 20.5215 15.5287 20.6156 15.5288C20.7097 15.5288 20.8022 15.5054 20.8838 15.4608C21.1303 15.326 21.4231 15.2895 21.6979 15.3595C21.9727 15.4295 22.207 15.6001 22.3495 15.834L22.8562 16.6666C23.1525 17.1544 22.9762 17.7771 22.4632 18.0585C22.3816 18.1032 22.3138 18.1676 22.2667 18.2451C22.2196 18.3226 22.1948 18.4105 22.1948 18.5C22.1948 18.5895 22.2196 18.6774 22.2667 18.7549C22.3138 18.8324 22.3816 18.8968 22.4632 18.9415C22.7095 19.0768 22.8892 19.2993 22.9628 19.5603C23.0365 19.8212 22.9982 20.0992 22.8562 20.3334L22.3495 21.166C22.207 21.3999 21.9727 21.5705 21.6979 21.6405C21.4231 21.7105 21.1303 21.674 20.8838 21.5392C20.8022 21.4946 20.7097 21.4712 20.6156 21.4712C20.5215 21.4713 20.429 21.4948 20.3475 21.5395C20.266 21.5841 20.1983 21.6483 20.1511 21.7257C20.104 21.803 20.0791 21.8908 20.0789 21.9801C20.0789 22.5435 19.5987 23 19.0055 23H17.994C17.7093 22.9998 17.4362 22.8923 17.235 22.7011C17.0337 22.5098 16.9206 22.2505 16.9206 21.9801C16.9204 21.8908 16.8955 21.803 16.8484 21.7257C16.8012 21.6483 16.7335 21.5841 16.652 21.5395C16.5704 21.4948 16.478 21.4713 16.3839 21.4712C16.2898 21.4712 16.1973 21.4946 16.1157 21.5392C15.8692 21.674 15.5764 21.7105 15.3016 21.6405C15.0268 21.5705 14.7925 21.3999 14.65 21.166L14.1433 20.3334C14.0013 20.0992 13.963 19.8212 14.0366 19.5603C14.1103 19.2993 14.29 19.0768 14.5363 18.9415C14.6177 18.8967 14.6854 18.8324 14.7324 18.7549C14.7794 18.6775 14.8041 18.5897 14.8041 18.5003C14.8041 18.4109 14.7794 18.3231 14.7324 18.2457C14.6854 18.1682 14.6177 18.1039 14.5363 18.0591C14.29 17.9238 14.1103 17.7013 14.0366 17.4403C13.963 17.1794 14.0013 16.9014 14.1433 16.6672L14.6494 15.834C14.7918 15.6001 15.0262 15.4295 15.301 15.3595C15.5758 15.2895 15.8686 15.326 16.1151 15.4608C16.1967 15.5054 16.2891 15.5288 16.3833 15.5288C16.4774 15.5287 16.5698 15.5052 16.6513 15.4605C16.7328 15.4159 16.8006 15.3517 16.8477 15.2743C16.8949 15.197 16.9198 15.1092 16.92 15.0199ZM19.4471 18.4994C19.4471 18.7381 19.3473 18.967 19.1695 19.1357C18.9918 19.3045 18.7508 19.3993 18.4994 19.3993C18.2481 19.3993 18.007 19.3045 17.8293 19.1357C17.6516 18.967 17.5518 18.7381 17.5518 18.4994C17.5518 18.2607 17.6516 18.0318 17.8293 17.8631C18.007 17.6943 18.2481 17.5995 18.4994 17.5995C18.7508 17.5995 18.9918 17.6943 19.1695 17.8631C19.3473 18.0318 19.4471 18.2607 19.4471 18.4994ZM20.3948 18.4994C20.3948 18.9767 20.1951 19.4345 19.8396 19.772C19.4842 20.1095 19.0021 20.2992 18.4994 20.2992C17.9968 20.2992 17.5147 20.1095 17.1592 19.772C16.8038 19.4345 16.6041 18.9767 16.6041 18.4994C16.6041 18.0221 16.8038 17.5643 17.1592 17.2268C17.5147 16.8893 17.9968 16.6996 18.4994 16.6996C19.0021 16.6996 19.4842 16.8893 19.8396 17.2268C20.1951 17.5643 20.3948 18.0221 20.3948 18.4994Z" fill="#A934BD"/>
</svg>
