<svg width="16" height="17" viewBox="0 0 16 17" fill="none" xmlns="http://www.w3.org/2000/svg">
<path d="M13.2139 11.6321V6.36791C13.5064 6.29297 13.7738 6.14199 13.989 5.93028C14.2042 5.71858 14.3595 5.4537 14.4393 5.16253C14.519 4.87137 14.5202 4.56429 14.4429 4.27248C14.3656 3.98067 14.2124 3.71452 13.9989 3.50106C13.7855 3.2876 13.5193 3.13442 13.2275 3.05709C12.9357 2.97975 12.6286 2.98101 12.3375 3.06074C12.0463 3.14047 11.7814 3.29582 11.5697 3.51103C11.358 3.72624 11.207 3.99363 11.1321 4.28607H5.86791C5.79297 3.99363 5.64199 3.72624 5.43028 3.51103C5.21858 3.29582 4.9537 3.14047 4.66253 3.06074C4.37137 2.98101 4.06429 2.97975 3.77248 3.05709C3.48067 3.13442 3.21452 3.2876 3.00106 3.50106C2.7876 3.71452 2.63442 3.98067 2.55709 4.27248C2.47975 4.56429 2.48101 4.87137 2.56074 5.16253C2.64047 5.4537 2.79582 5.71858 3.01103 5.93028C3.22624 6.14199 3.49363 6.29297 3.78607 6.36791V11.6321C3.49363 11.707 3.22624 11.858 3.01103 12.0697C2.79582 12.2814 2.64047 12.5463 2.56074 12.8375C2.48101 13.1286 2.47975 13.4357 2.55709 13.7275C2.63442 14.0193 2.7876 14.2855 3.00106 14.4989C3.21452 14.7124 3.48067 14.8656 3.77248 14.9429C4.06429 15.0202 4.37137 15.019 4.66253 14.9393C4.9537 14.8595 5.21858 14.7042 5.43028 14.489C5.64199 14.2738 5.79297 14.0064 5.86791 13.7139H11.1321C11.207 14.0064 11.358 14.2738 11.5697 14.489C11.7814 14.7042 12.0463 14.8595 12.3375 14.9393C12.6286 15.019 12.9357 15.0202 13.2275 14.9429C13.5193 14.8656 13.7855 14.7124 13.9989 14.4989C14.2124 14.2855 14.3656 14.0193 14.4429 13.7275C14.5202 13.4357 14.519 13.1286 14.4393 12.8375C14.3595 12.5463 14.2042 12.2814 13.989 12.0697C13.7738 11.858 13.5064 11.707 13.2139 11.6321ZM12.7854 3.85753C12.9549 3.85753 13.1206 3.9078 13.2616 4.00197C13.4025 4.09615 13.5124 4.23001 13.5772 4.38662C13.6421 4.54323 13.6591 4.71556 13.626 4.88182C13.5929 5.04807 13.5113 5.20079 13.3914 5.32065C13.2716 5.44052 13.1189 5.52215 12.9526 5.55522C12.7863 5.58829 12.614 5.57132 12.4574 5.50644C12.3008 5.44157 12.1669 5.33172 12.0728 5.19077C11.9786 5.04983 11.9283 4.88412 11.9283 4.71461C11.9283 4.4873 12.0186 4.26929 12.1793 4.10856C12.3401 3.94783 12.5581 3.85753 12.7854 3.85753ZM3.35753 4.71461C3.35753 4.54509 3.4078 4.37939 3.50197 4.23844C3.59615 4.09749 3.73001 3.98764 3.88662 3.92277C4.04323 3.8579 4.21556 3.84093 4.38182 3.874C4.54807 3.90707 4.70079 3.9887 4.82065 4.10856C4.94052 4.22843 5.02215 4.38114 5.05522 4.5474C5.08829 4.71366 5.07132 4.88599 5.00644 5.0426C4.94157 5.19921 4.83172 5.33307 4.69077 5.42724C4.54983 5.52142 4.38412 5.57169 4.21461 5.57169C3.9873 5.57169 3.76929 5.48139 3.60856 5.32065C3.44783 5.15992 3.35753 4.94192 3.35753 4.71461ZM4.21461 14.1425C4.04509 14.1425 3.87939 14.0922 3.73844 13.998C3.59749 13.9038 3.48764 13.77 3.42277 13.6134C3.3579 13.4568 3.34093 13.2844 3.374 13.1182C3.40707 12.9519 3.4887 12.7992 3.60856 12.6793C3.72843 12.5595 3.88114 12.4779 4.0474 12.4448C4.21366 12.4117 4.38599 12.4287 4.5426 12.4936C4.69921 12.5584 4.83307 12.6683 4.92724 12.8092C5.02142 12.9502 5.07169 13.1159 5.07169 13.2854C5.07169 13.5127 4.98139 13.7307 4.82065 13.8914C4.65992 14.0522 4.44192 14.1425 4.21461 14.1425ZM11.1321 12.8569H5.86791C5.7909 12.5623 5.63686 12.2936 5.4216 12.0784C5.20635 11.8631 4.93766 11.7091 4.64315 11.6321V6.36791C4.93766 6.2909 5.20635 6.13686 5.4216 5.9216C5.63686 5.70635 5.7909 5.43766 5.86791 5.14315H11.1321C11.2091 5.43766 11.3631 5.70635 11.5784 5.9216C11.7936 6.13686 12.0623 6.2909 12.3569 6.36791V11.6321C12.0621 11.7087 11.7932 11.8626 11.5779 12.0779C11.3626 12.2932 11.2087 12.5621 11.1321 12.8569ZM12.7854 14.1425C12.6159 14.1425 12.4502 14.0922 12.3092 13.998C12.1683 13.9038 12.0584 13.77 11.9936 13.6134C11.9287 13.4568 11.9117 13.2844 11.9448 13.1182C11.9779 12.9519 12.0595 12.7992 12.1793 12.6793C12.2992 12.5595 12.4519 12.4779 12.6182 12.4448C12.7844 12.4117 12.9568 12.4287 13.1134 12.4936C13.27 12.5584 13.4038 12.6683 13.498 12.8092C13.5922 12.9502 13.6425 13.1159 13.6425 13.2854C13.6421 13.5126 13.5517 13.7304 13.3911 13.8911C13.2304 14.0517 13.0126 14.1421 12.7854 14.1425Z" fill="#737373"/>
</svg>
