<svg width="20" height="20" viewBox="0 0 20 20" fill="none" xmlns="http://www.w3.org/2000/svg">
<path d="M15.5 10.5C15.7761 10.5 16 10.2761 16 10C16 9.72386 15.7761 9.5 15.5 9.5L5.80298 9.5L9.83448 5.87165C10.0397 5.68692 10.0564 5.37078 9.87165 5.16552C9.68692 4.96027 9.37077 4.94363 9.16552 5.12836L4.16552 9.62835C4.06016 9.72317 4 9.85826 4 10C4 10.1417 4.06016 10.2768 4.16552 10.3716L9.16552 14.8716C9.37077 15.0564 9.68692 15.0397 9.87165 14.8345C10.0564 14.6292 10.0397 14.3131 9.83448 14.1283L5.80298 10.5L15.5 10.5Z" fill="#0A1424"/>
</svg>
