<svg width="16" height="17" viewBox="0 0 16 17" fill="none" xmlns="http://www.w3.org/2000/svg">
<path d="M14.1695 7.04083H12.2966V6.92859C12.2966 6.83928 12.2618 6.75363 12.1998 6.69048C12.1378 6.62733 12.0538 6.59185 11.9661 6.59185H8.44068C8.35302 6.59185 8.26896 6.62733 8.20697 6.69048C8.14499 6.75363 8.11017 6.83928 8.11017 6.92859V7.04083H4.36441V4.4592C4.36441 4.25082 4.44566 4.05097 4.59028 3.90362C4.73491 3.75627 4.93106 3.67349 5.13559 3.67349C5.31583 3.67315 5.49087 3.73506 5.63213 3.84912C5.77339 3.96318 5.87253 4.12264 5.91339 4.3015C5.92139 4.34543 5.93789 4.3873 5.96193 4.42467C5.98597 4.46204 6.01707 4.49416 6.05342 4.51916C6.08977 4.54416 6.13063 4.56154 6.17364 4.57029C6.21664 4.57904 6.26093 4.57898 6.30391 4.57012C6.3469 4.56125 6.38772 4.54376 6.424 4.51867C6.46028 4.49357 6.4913 4.46137 6.51525 4.42393C6.53919 4.3865 6.55559 4.34459 6.56347 4.30064C6.57136 4.25668 6.57058 4.21157 6.56119 4.16793C6.49145 3.83601 6.31163 3.53869 6.052 3.32599C5.79236 3.11329 5.46875 2.99818 5.13559 3.00002C4.75575 3.00002 4.39146 3.15376 4.12287 3.42741C3.85428 3.70106 3.70339 4.0722 3.70339 4.4592V7.04083H1.83051C1.74285 7.04083 1.65879 7.07631 1.5968 7.13946C1.53482 7.20261 1.5 7.28826 1.5 7.37756V9.62246C1.50087 10.426 1.81455 11.1963 2.3722 11.7644C2.92985 12.3326 3.68594 12.6522 4.47458 12.6531H4.58475V13.6633C4.58475 13.7526 4.61957 13.8382 4.68155 13.9014C4.74353 13.9645 4.8276 14 4.91525 14C5.00291 14 5.08698 13.9645 5.14896 13.9014C5.21094 13.8382 5.24576 13.7526 5.24576 13.6633V12.6531H10.7542V13.6633C10.7542 13.7526 10.7891 13.8382 10.851 13.9014C10.913 13.9645 10.9971 14 11.0847 14C11.1724 14 11.2565 13.9645 11.3185 13.9014C11.3804 13.8382 11.4153 13.7526 11.4153 13.6633V12.6531H11.5254C12.3141 12.6522 13.0701 12.3326 13.6278 11.7644C14.1855 11.1963 14.4991 10.426 14.5 9.62246V7.37756C14.5 7.28826 14.4652 7.20261 14.4032 7.13946C14.3412 7.07631 14.2571 7.04083 14.1695 7.04083ZM8.77119 7.26532H11.6356V9.28572H8.77119V7.26532ZM13.839 9.62246C13.839 10.2476 13.5952 10.8472 13.1614 11.2892C12.7275 11.7313 12.139 11.9796 11.5254 11.9796H4.47458C3.86098 11.9796 3.27252 11.7313 2.83864 11.2892C2.40477 10.8472 2.16102 10.2476 2.16102 9.62246V7.7143H8.11017V9.62246C8.11017 9.71176 8.14499 9.79741 8.20697 9.86056C8.26896 9.92371 8.35302 9.95919 8.44068 9.95919H11.9661C12.0538 9.95919 12.1378 9.92371 12.1998 9.86056C12.2618 9.79741 12.2966 9.71176 12.2966 9.62246V7.7143H13.839V9.62246Z" fill="#737373"/>
</svg>
