<svg width="16" height="17" viewBox="0 0 16 17" fill="none" xmlns="http://www.w3.org/2000/svg">
<path d="M1.5 14V10.5C1.50157 9.97005 1.71278 9.46225 2.08752 9.08752C2.46225 8.71278 2.97005 8.50157 3.5 8.5H12.5C13.03 8.50157 13.5377 8.71278 13.9125 9.08752C14.2872 9.46225 14.4984 9.97005 14.5 10.5V14M12 8.5H3V5.25C3.00099 4.91878 3.133 4.60142 3.36721 4.36721C3.60142 4.133 3.91878 4.00099 4.25 4H11.75C12.0812 4.00099 12.3986 4.133 12.6328 4.36721C12.867 4.60142 12.999 4.91878 13 5.25V8.5H12Z" stroke="#737373" stroke-linecap="round" stroke-linejoin="round"/>
<path d="M1.5 14V13.75C1.50058 13.5513 1.57978 13.3608 1.72031 13.2203C1.86083 13.0798 2.05127 13.0006 2.25 13H13.75C13.9487 13.0006 14.1392 13.0798 14.2797 13.2203C14.4202 13.3608 14.4994 13.5513 14.5 13.75V14M3.5 8.5V8C3.50074 7.73501 3.60634 7.48109 3.79371 7.29371C3.98109 7.10634 4.23501 7.00074 4.5 7H7C7.26499 7.00074 7.51891 7.10634 7.70629 7.29371C7.89366 7.48109 7.99926 7.73501 8 8M8 8V8.5M8 8C8.00074 7.73501 8.10634 7.48109 8.29371 7.29371C8.48109 7.10634 8.73501 7.00074 9 7H11.5C11.765 7.00074 12.0189 7.10634 12.2063 7.29371C12.3937 7.48109 12.4993 7.73501 12.5 8V8.5" stroke="#737373" stroke-linecap="round" stroke-linejoin="round"/>
</svg>
