<svg width="787" height="649" viewBox="0 0 787 649" fill="none" xmlns="http://www.w3.org/2000/svg">
<g clip-path="url(#clip0_796_6373)">
<path d="M-28.074 214.723H292.145V649.516H-28.074V214.723Z" fill="#E2E9F7" stroke="#E2E9F7" stroke-width="2.84" stroke-miterlimit="10"/>
<path d="M-28.0744 214.723H122.844V649.516H-28.0744V214.723Z" fill="#FFFFF8" stroke="#E2E9F7" stroke-width="3" stroke-miterlimit="10"/>
<path d="M35.4757 556.974C40.354 556.966 45.186 557.919 49.6946 559.78C54.2032 561.641 58.2997 564.372 61.7492 567.818C65.1987 571.264 67.9332 575.356 69.796 579.86C71.6588 584.364 72.6132 589.191 72.6044 594.064V648.705H-1.65294V594.064C-1.67488 589.187 -0.729507 584.354 1.12862 579.844C2.98673 575.335 5.72076 571.237 9.17286 567.789C12.625 564.34 16.7267 561.609 21.2413 559.753C25.7559 557.897 30.5938 556.952 35.4757 556.974Z" fill="#EEF6FF"/>
<path d="M-1.81895 648.705V594.064C-1.82768 589.191 -0.873283 584.364 0.989515 579.86C2.85231 575.356 5.58683 571.264 9.03629 567.818C12.4857 564.372 16.5823 561.641 21.0909 559.78C25.5995 557.919 30.4315 556.966 35.3097 556.974V556.974C40.188 556.966 45.02 557.919 49.5286 559.78C54.0372 561.641 58.1337 564.372 61.5832 567.818C65.0326 571.264 67.7672 575.356 69.63 579.86C71.4927 584.364 72.4472 589.191 72.4384 594.064" stroke="#E2E9F7" stroke-width="3" stroke-miterlimit="10"/>
<path d="M35.4756 556.974V648.705" stroke="#E2E9F7" stroke-width="3" stroke-miterlimit="10"/>
<path d="M100.169 471.585H-16.5876" stroke="#E2E9F7" stroke-width="2.84" stroke-miterlimit="10"/>
<path d="M144.971 214.723H233.6V649.516H144.971V214.723Z" fill="#FFFFF8" stroke="#E2E9F7" stroke-width="3" stroke-miterlimit="10"/>
<path d="M162.111 433.303H185.73V465.509H162.111V433.303Z" fill="#E2E9F7"/>
<path d="M162.111 433.303H185.73V465.509H162.111V433.303Z" fill="#EEF6FF"/>
<path d="M185.73 428.121H162.111V465.509" stroke="#E2E9F7" stroke-width="2.84" stroke-miterlimit="10"/>
<path d="M193.72 433.303H217.34V465.509H193.72V433.303Z" fill="#E2E9F7"/>
<path d="M193.72 433.303H217.34V465.509H193.72V433.303Z" fill="#E2E9F7"/>
<path d="M217.34 428.121H193.72V465.509" stroke="#E2E9F7" stroke-width="2.84" stroke-miterlimit="10"/>
<path d="M162.111 495.925H185.73V528.13H162.111V495.925Z" fill="#E2E9F7"/>
<path d="M162.111 495.925H185.73V528.13H162.111V495.925Z" fill="#EEF6FF"/>
<path d="M185.73 490.743H162.111V528.13" stroke="#E2E9F7" stroke-width="2.84" stroke-miterlimit="10"/>
<path d="M193.72 495.925H217.34V528.13H193.72V495.925Z" fill="#E2E9F7"/>
<path d="M193.72 495.925H217.34V528.13H193.72V495.925Z" fill="#E2E9F7"/>
<path d="M217.34 490.743H193.72V528.13" stroke="#E2E9F7" stroke-width="2.84" stroke-miterlimit="10"/>
<path d="M162.111 558.531H185.73V590.736H162.111V558.531Z" fill="#E2E9F7"/>
<path d="M162.111 558.531H185.73V590.736H162.111V558.531Z" fill="#E2E9F7"/>
<path d="M185.73 553.348H162.111V590.752" stroke="#E2E9F7" stroke-width="2.84" stroke-miterlimit="10"/>
<path d="M193.72 558.531H217.34V590.736H193.72V558.531Z" fill="#E2E9F7"/>
<path d="M193.72 558.531H217.34V590.736H193.72V558.531Z" fill="#E2E9F7"/>
<path d="M217.34 553.348H193.72V590.752" stroke="#E2E9F7" stroke-width="2.84" stroke-miterlimit="10"/>
<path d="M215.533 471.585H162.111" stroke="#E2E9F7" stroke-width="2.84" stroke-miterlimit="10"/>
<path d="M215.533 534.439H162.111" stroke="#E2E9F7" stroke-width="2.84" stroke-miterlimit="10"/>
<path d="M215.533 597.276H162.111" stroke="#E2E9F7" stroke-width="2.84" stroke-miterlimit="10"/>
<path d="M76.5491 433.303H100.169V465.509H76.5491V433.303Z" fill="#E2E9F7"/>
<path d="M76.5491 495.925H100.169V528.13H76.5491V495.925Z" fill="#EEF6FF"/>
<path d="M46.1829 433.303H69.8027V465.509H46.1829V433.303Z" fill="#EEF6FF"/>
<path d="M46.1829 495.925H69.8027V528.13H46.1829V495.925Z" fill="#E2E9F7"/>
<path d="M15.8001 433.303H39.4199V465.509H15.8001V433.303Z" fill="#E2E9F7"/>
<path d="M15.8001 495.925H39.4199V528.13H15.8001V495.925Z" fill="#EEF6FF"/>
<path d="M-14.5651 433.303H9.05469V465.509H-14.5651V433.303Z" fill="#EEF6FF"/>
<path d="M-14.5651 495.925H9.05469V528.13H-14.5651V495.925Z" fill="#E2E9F7"/>
<path d="M100.169 534.439H-16.5876" stroke="#E2E9F7" stroke-width="2.84" stroke-miterlimit="10"/>
<path d="M9.05469 428.121H-14.5651V465.509" stroke="#E2E9F7" stroke-width="2.84" stroke-miterlimit="10"/>
<path d="M39.4199 428.121H15.8001V465.509" stroke="#E2E9F7" stroke-width="2.84" stroke-miterlimit="10"/>
<path d="M69.8027 428.121H46.1829V465.509" stroke="#E2E9F7" stroke-width="2.84" stroke-miterlimit="10"/>
<path d="M100.169 428.121H76.5491V465.509" stroke="#E2E9F7" stroke-width="2.84" stroke-miterlimit="10"/>
<path d="M76.5491 433.303H100.169V465.509H76.5491V433.303Z" fill="#E2E9F7"/>
<path d="M100.169 428.121H76.5491V465.509" stroke="#E2E9F7" stroke-width="2.84" stroke-miterlimit="10"/>
<path d="M9.05469 490.743H-14.5651V528.13" stroke="#E2E9F7" stroke-width="2.84" stroke-miterlimit="10"/>
<path d="M39.4199 490.743H15.8001V528.13" stroke="#E2E9F7" stroke-width="2.84" stroke-miterlimit="10"/>
<path d="M69.8027 490.743H46.1829V528.13" stroke="#E2E9F7" stroke-width="2.84" stroke-miterlimit="10"/>
<path d="M100.169 490.743H76.5491V528.13" stroke="#E2E9F7" stroke-width="2.84" stroke-miterlimit="10"/>
<path d="M100.169 283.885H-16.5876" stroke="#E2E9F7" stroke-width="2.84" stroke-miterlimit="10"/>
<path d="M162.111 245.603H185.73V277.808H162.111V245.603Z" fill="#E2E9F7"/>
<path d="M162.111 245.603H185.73V277.808H162.111V245.603Z" fill="#E2E9F7"/>
<path d="M185.73 240.421H162.111V277.808" stroke="#E2E9F7" stroke-width="2.84" stroke-miterlimit="10"/>
<path d="M193.72 245.603H217.34V277.808H193.72V245.603Z" fill="#E2E9F7"/>
<path d="M193.72 245.603H217.34V277.808H193.72V245.603Z" fill="#EEF6FF"/>
<path d="M217.34 240.421H193.72V277.808" stroke="#E2E9F7" stroke-width="2.84" stroke-miterlimit="10"/>
<path d="M162.111 308.225H185.73V340.43H162.111V308.225Z" fill="#E2E9F7"/>
<path d="M162.111 308.225H185.73V340.43H162.111V308.225Z" fill="#E2E9F7"/>
<path d="M185.73 303.042H162.111V340.43" stroke="#E2E9F7" stroke-width="2.84" stroke-miterlimit="10"/>
<path d="M193.72 308.225H217.34V340.43H193.72V308.225Z" fill="#E2E9F7"/>
<path d="M193.72 308.225H217.34V340.43H193.72V308.225Z" fill="#EEF6FF"/>
<path d="M217.34 303.042H193.72V340.43" stroke="#E2E9F7" stroke-width="2.84" stroke-miterlimit="10"/>
<path d="M162.111 370.831H185.73V403.036H162.111V370.831Z" fill="#E2E9F7"/>
<path d="M162.111 370.831H185.73V403.036H162.111V370.831Z" fill="#EEF6FF"/>
<path d="M185.73 365.648H162.111V403.052" stroke="#E2E9F7" stroke-width="2.84" stroke-miterlimit="10"/>
<path d="M193.72 370.831H217.34V403.036H193.72V370.831Z" fill="#E2E9F7"/>
<path d="M193.72 370.831H217.34V403.036H193.72V370.831Z" fill="#E2E9F7"/>
<path d="M217.34 365.648H193.72V403.052" stroke="#E2E9F7" stroke-width="2.84" stroke-miterlimit="10"/>
<path d="M215.533 283.885H162.111" stroke="#E2E9F7" stroke-width="2.84" stroke-miterlimit="10"/>
<path d="M215.533 346.739H162.111" stroke="#E2E9F7" stroke-width="2.84" stroke-miterlimit="10"/>
<path d="M215.533 409.576H162.111" stroke="#E2E9F7" stroke-width="2.84" stroke-miterlimit="10"/>
<path d="M76.5491 245.603H100.169V277.808H76.5491V245.603Z" fill="#E2E9F7"/>
<path d="M76.5491 308.225H100.169V340.43H76.5491V308.225Z" fill="#E2E9F7"/>
<path d="M76.5491 370.831H100.169V403.036H76.5491V370.831Z" fill="#E2E9F7"/>
<path d="M46.1829 245.603H69.8027V277.808H46.1829V245.603Z" fill="#EEF6FF"/>
<path d="M46.1829 308.225H69.8027V340.43H46.1829V308.225Z" fill="#EEF6FF"/>
<path d="M46.1829 370.831H69.8027V403.036H46.1829V370.831Z" fill="#EEF6FF"/>
<path d="M15.8001 245.603H39.4199V277.808H15.8001V245.603Z" fill="#E2E9F7"/>
<path d="M15.8001 308.225H39.4199V340.43H15.8001V308.225Z" fill="#E2E9F7"/>
<path d="M15.8001 370.831H39.4199V403.036H15.8001V370.831Z" fill="#EEF6FF"/>
<path d="M-14.5651 245.603H9.05469V277.808H-14.5651V245.603Z" fill="#EEF6FF"/>
<path d="M-14.5651 308.225H9.05469V340.43H-14.5651V308.225Z" fill="#E2E9F7"/>
<path d="M100.169 410.702H-16.5876" stroke="#E2E9F7" stroke-width="2.84" stroke-miterlimit="10"/>
<path d="M100.169 346.739H-16.5876" stroke="#E2E9F7" stroke-width="2.84" stroke-miterlimit="10"/>
<path d="M-14.5651 370.831H9.05469V403.036H-14.5651V370.831Z" fill="#EEF6FF"/>
<path d="M9.05469 240.421H-14.5651V277.808" stroke="#E2E9F7" stroke-width="2.84" stroke-miterlimit="10"/>
<path d="M39.4199 240.421H15.8001V277.808" stroke="#E2E9F7" stroke-width="2.84" stroke-miterlimit="10"/>
<path d="M69.8027 240.421H46.1829V277.808" stroke="#E2E9F7" stroke-width="2.84" stroke-miterlimit="10"/>
<path d="M100.169 240.421H76.5491V277.808" stroke="#E2E9F7" stroke-width="2.84" stroke-miterlimit="10"/>
<path d="M76.5491 245.603H100.169V277.808H76.5491V245.603Z" fill="#EEF6FF"/>
<path d="M100.169 240.421H76.5491V277.808" stroke="#E2E9F7" stroke-width="2.84" stroke-miterlimit="10"/>
<path d="M9.05469 303.042H-14.5651V340.43" stroke="#E2E9F7" stroke-width="2.84" stroke-miterlimit="10"/>
<path d="M39.4199 303.042H15.8001V340.43" stroke="#E2E9F7" stroke-width="2.84" stroke-miterlimit="10"/>
<path d="M69.8027 303.042H46.1829V340.43" stroke="#E2E9F7" stroke-width="2.84" stroke-miterlimit="10"/>
<path d="M100.169 303.042H76.5491V340.43" stroke="#E2E9F7" stroke-width="2.84" stroke-miterlimit="10"/>
<path d="M9.05469 365.549H-14.5651V402.936" stroke="#E2E9F7" stroke-width="2.84" stroke-miterlimit="10"/>
<path d="M39.4199 365.549H15.8001V402.936" stroke="#E2E9F7" stroke-width="2.84" stroke-miterlimit="10"/>
<path d="M69.8027 365.549H46.1829V402.936" stroke="#E2E9F7" stroke-width="2.84" stroke-miterlimit="10"/>
<path d="M100.169 365.549H76.5491V402.936" stroke="#E2E9F7" stroke-width="2.84" stroke-miterlimit="10"/>
<path d="M122.844 2.48364H56.2772V135.477H189.41V68.9801C189.41 51.3442 182.397 34.4305 169.913 21.96C157.43 9.4895 140.498 2.48364 122.844 2.48364Z" fill="#E2E9F7" stroke="#E2E9F7" stroke-width="2.84" stroke-miterlimit="10"/>
<path d="M61.6806 2.48364C44.0261 2.48364 27.0947 9.4895 14.611 21.96C2.12739 34.4305 -4.88586 51.3442 -4.88586 68.9801V135.477H128.247V68.9801C128.247 51.3442 121.234 34.4305 108.75 21.96C96.2666 9.4895 79.3351 2.48364 61.6806 2.48364Z" fill="#FFFFF8" stroke="#E2E9F7" stroke-width="3" stroke-miterlimit="10"/>
<path d="M157.138 115.591H171.343V139.699H157.138V115.591Z" fill="#E2E9F7" stroke="#E2E9F7" stroke-width="2.84" stroke-miterlimit="10"/>
<path d="M216.03 115.591H230.235V139.699H216.03V115.591Z" fill="#E2E9F7" stroke="#E2E9F7" stroke-width="2.84" stroke-miterlimit="10"/>
<path d="M-30.5445 115.591V138.788H147.889V115.591H162.11V138.788V139.699V214.673H-44.7661V139.699V138.788V115.591H-30.5445Z" fill="#FFFFF8" stroke="#E2E9F7" stroke-width="3" stroke-miterlimit="10"/>
<path d="M230.235 214.673H162.11V138.788H230.235V214.673Z" fill="#E2E9F7" stroke="#E2E9F7" stroke-width="2.84" stroke-miterlimit="10"/>
<path d="M80.0625 159.535H36.5523V193.942" stroke="#E2E9F7" stroke-width="2.62" stroke-miterlimit="10"/>
<path d="M38.6242 166.291H80.0791V193.926H38.6242V166.291Z" fill="#EEF6FF"/>
<path d="M22.3809 159.535H-21.1293V193.942" stroke="#E2E9F7" stroke-width="2.62" stroke-miterlimit="10"/>
<path d="M-19.074 166.291H22.3809V193.926H-19.074V166.291Z" fill="#EEF6FF"/>
<path d="M140.148 159.535H96.6382V193.942" stroke="#E2E9F7" stroke-width="2.62" stroke-miterlimit="10"/>
<path d="M98.7102 166.291H140.165V193.926H98.7102V166.291Z" fill="#EEF6FF"/>
<path d="M207.742 115.591H221.947V138.788H207.742V115.591Z" fill="#FFFFF8" stroke="#E2E9F7" stroke-width="3" stroke-miterlimit="10"/>
<path d="M21.4909 68.0718C18.21 47.7926 32.0071 28.6961 52.3077 25.4187C72.6083 22.1412 91.7248 35.9239 95.0057 56.2031C98.2866 76.4823 84.4894 95.5788 64.1889 98.8562C43.8883 102.134 24.7718 88.351 21.4909 68.0718Z" fill="#EEF6FF"/>
<path d="M95.4453 64.2777C95.4453 56.942 93.2677 49.7711 89.188 43.6718C85.1082 37.5724 79.3096 32.8185 72.5252 30.0113C65.7408 27.2041 58.2754 26.4696 51.0732 27.9007C43.8709 29.3318 37.2552 32.8642 32.0626 38.0513C26.8701 43.2384 23.3339 49.8472 21.9013 57.0418C20.4687 64.2365 21.204 71.694 24.0142 78.4713C26.8243 85.2485 31.5833 91.0411 37.689 95.1166C43.7948 99.1921 50.9733 101.367 58.3166 101.367" stroke="#E2E9F7" stroke-width="3" stroke-miterlimit="10"/>
<path d="M271.011 175.812H581.964V647.049H271.011V175.812Z" fill="#E2E9F7" stroke="#E2E9F7" stroke-width="3" stroke-miterlimit="10"/>
<path d="M271.01 175.812H456.322V647.049H271.01V175.812Z" fill="#EEF6FF" stroke="#E2E9F7" stroke-miterlimit="10"/>
<path d="M428.476 278.636H285.099" stroke="#E2E9F7" stroke-width="3" stroke-miterlimit="10"/>
<path d="M399.469 222.339H428.476V269.695H399.469V222.339Z" fill="#FFFFF8"/>
<path d="M399.469 314.401H428.476V361.757H399.469V314.401Z" fill="#FFFFF8"/>
<path d="M399.469 406.463H428.476V453.819H399.469V406.463Z" fill="#FFFFF8"/>
<path d="M362.175 222.339H391.182V269.695H362.175V222.339Z" fill="#FFFFF8"/>
<path d="M362.175 314.401H391.182V361.757H362.175V314.401Z" fill="#FFFFF8"/>
<path d="M362.175 406.463H391.182V453.819H362.175V406.463Z" fill="#FFFFF8"/>
<path d="M324.88 222.339H353.887V269.695H324.88V222.339Z" fill="#FFFFF8"/>
<path d="M324.88 314.401H353.887V361.757H324.88V314.401Z" fill="#FFFFF8"/>
<path d="M324.88 406.463H353.887V453.819H324.88V406.463Z" fill="#FFFFF8"/>
<path d="M287.586 222.339H316.593V269.695H287.586V222.339Z" fill="#FFFFF8"/>
<path d="M287.586 314.401H316.593V361.757H287.586V314.401Z" fill="#FFFFF8"/>
<path d="M428.476 465.078H285.099" stroke="#E2E9F7" stroke-width="3" stroke-miterlimit="10"/>
<path d="M428.476 371.029H285.099" stroke="#E2E9F7" stroke-width="3" stroke-miterlimit="10"/>
<path d="M287.586 406.463H316.593V453.819H287.586V406.463Z" fill="#FFFFF8"/>
<path d="M316.593 214.723H287.586V269.695" stroke="#E2E9F7" stroke-width="3" stroke-miterlimit="10"/>
<path d="M353.887 214.723H324.88V269.695" stroke="#E2E9F7" stroke-width="3" stroke-miterlimit="10"/>
<path d="M391.182 214.723H362.175V269.695" stroke="#E2E9F7" stroke-width="3" stroke-miterlimit="10"/>
<path d="M428.476 214.723H399.469V269.695" stroke="#E2E9F7" stroke-width="3" stroke-miterlimit="10"/>
<path d="M316.593 306.785H287.586V361.757" stroke="#E2E9F7" stroke-width="3" stroke-miterlimit="10"/>
<path d="M353.887 306.785H324.88V361.757" stroke="#E2E9F7" stroke-width="3" stroke-miterlimit="10"/>
<path d="M391.182 306.785H362.175V361.757" stroke="#E2E9F7" stroke-width="3" stroke-miterlimit="10"/>
<path d="M428.476 306.785H399.469V361.757" stroke="#E2E9F7" stroke-width="3" stroke-miterlimit="10"/>
<path d="M316.593 398.681H287.586V453.653" stroke="#E2E9F7" stroke-width="3" stroke-miterlimit="10"/>
<path d="M353.887 398.681H324.88V453.653" stroke="#E2E9F7" stroke-width="3" stroke-miterlimit="10"/>
<path d="M391.182 398.681H362.175V453.653" stroke="#E2E9F7" stroke-width="3" stroke-miterlimit="10"/>
<path d="M428.476 398.681H399.469V453.653" stroke="#E2E9F7" stroke-width="3" stroke-miterlimit="10"/>
<path d="M581.963 258.932H707.77V647.215H581.963V258.932Z" fill="#E2E9F7" stroke="#E2E9F7" stroke-width="3" stroke-miterlimit="10"/>
<path d="M500.247 258.932H626.054V647.215H500.247V258.932Z" fill="#FFFFF8" stroke="#E2E9F7" stroke-width="3" stroke-miterlimit="10"/>
<path d="M583.952 275.49H609.312V319.203H583.952V275.49Z" fill="#FFFFF8" stroke="#E2E9F7" stroke-width="3" stroke-miterlimit="10"/>
<path d="M550.305 275.49H575.665V319.203H550.305V275.49Z" fill="#FFFFF8" stroke="#E2E9F7" stroke-width="3" stroke-miterlimit="10"/>
<path d="M516.656 275.49H542.017V319.203H516.656V275.49Z" fill="#FFFFF8" stroke="#E2E9F7" stroke-width="3" stroke-miterlimit="10"/>
<path d="M583.952 327.316H609.312V371.029H583.952V327.316Z" fill="#FFFFF8" stroke="#E2E9F7" stroke-width="3" stroke-miterlimit="10"/>
<path d="M550.305 327.316H575.665V371.029H550.305V327.316Z" fill="#FFFFF8" stroke="#E2E9F7" stroke-width="3" stroke-miterlimit="10"/>
<path d="M516.656 327.316H542.017V371.029H516.656V327.316Z" fill="#FFFFF8" stroke="#E2E9F7" stroke-width="3" stroke-miterlimit="10"/>
<path d="M583.952 379.308H609.312V423.021H583.952V379.308Z" fill="#FFFFF8" stroke="#E2E9F7" stroke-width="3" stroke-miterlimit="10"/>
<path d="M550.305 379.308H575.665V423.021H550.305V379.308Z" fill="#FFFFF8" stroke="#E2E9F7" stroke-width="3" stroke-miterlimit="10"/>
<path d="M516.656 379.308H542.017V423.021H516.656V379.308Z" fill="#FFFFF8" stroke="#E2E9F7" stroke-width="3" stroke-miterlimit="10"/>
<path d="M583.952 431.3H609.312V475.013H583.952V431.3Z" fill="#FFFFF8" stroke="#E2E9F7" stroke-width="3" stroke-miterlimit="10"/>
<path d="M550.305 431.3H575.665V475.013H550.305V431.3Z" fill="#FFFFF8" stroke="#E2E9F7" stroke-width="3" stroke-miterlimit="10"/>
<path d="M516.656 431.3H542.017V475.013H516.656V431.3Z" fill="#FFFFF8" stroke="#E2E9F7" stroke-width="3" stroke-miterlimit="10"/>
<path d="M583.952 483.126H609.312V526.839H583.952V483.126Z" fill="#FFFFF8" stroke="#E2E9F7" stroke-width="3" stroke-miterlimit="10"/>
<path d="M550.305 483.126H575.665V526.839H550.305V483.126Z" fill="#FFFFF8" stroke="#E2E9F7" stroke-width="3" stroke-miterlimit="10"/>
<path d="M516.656 483.126H542.017V526.839H516.656V483.126Z" fill="#FFFFF8" stroke="#E2E9F7" stroke-width="3" stroke-miterlimit="10"/>
<path d="M583.952 535.118H609.312V578.831H583.952V535.118Z" fill="#FFFFF8" stroke="#E2E9F7" stroke-width="3" stroke-miterlimit="10"/>
<path d="M550.305 535.118H575.665V578.831H550.305V535.118Z" fill="#FFFFF8" stroke="#E2E9F7" stroke-width="3" stroke-miterlimit="10"/>
<path d="M516.656 535.118H542.017V578.831H516.656V535.118Z" fill="#FFFFF8" stroke="#E2E9F7" stroke-width="3" stroke-miterlimit="10"/>
<path d="M550.305 591.911H575.665V647.215H550.305V591.911Z" fill="#FFFFF8" stroke="#E2E9F7" stroke-width="3" stroke-miterlimit="10"/>
<path d="M583.952 282.113H609.312V319.203H583.952V282.113Z" fill="#E2E9F7"/>
<path d="M550.305 282.113H575.665V319.203H550.305V282.113Z" fill="#E2E9F7"/>
<path d="M516.656 282.113H542.017V319.203H516.656V282.113Z" fill="#E2E9F7"/>
<path d="M583.952 335.595H609.312V371.029H583.952V335.595Z" fill="#E2E9F7"/>
<path d="M550.305 335.595H575.665V371.029H550.305V335.595Z" fill="#E2E9F7"/>
<path d="M516.656 335.595H542.017V371.029H516.656V335.595Z" fill="#E2E9F7"/>
<path d="M583.952 387.587H609.312V423.021H583.952V387.587Z" fill="#E2E9F7"/>
<path d="M550.305 387.587H575.665V423.021H550.305V387.587Z" fill="#E2E9F7"/>
<path d="M516.656 387.587H542.017V423.021H516.656V387.587Z" fill="#E2E9F7"/>
<path d="M583.952 439.579H609.312V475.013H583.952V439.579Z" fill="#E2E9F7"/>
<path d="M550.305 439.579H575.665V475.013H550.305V439.579Z" fill="#E2E9F7"/>
<path d="M516.656 439.579H542.017V475.013H516.656V439.579Z" fill="#E2E9F7"/>
<path d="M583.952 491.405H609.312V526.839H583.952V491.405Z" fill="#E2E9F7"/>
<path d="M550.305 491.405H575.665V526.839H550.305V491.405Z" fill="#E2E9F7"/>
<path d="M516.656 491.405H542.017V526.839H516.656V491.405Z" fill="#E2E9F7"/>
<path d="M583.952 543.397H609.312V578.831H583.952V543.397Z" fill="#E2E9F7"/>
<path d="M550.305 543.397H575.665V578.831H550.305V543.397Z" fill="#E2E9F7"/>
<path d="M516.656 543.397H542.017V578.831H516.656V543.397Z" fill="#E2E9F7"/>
<path d="M705.449 402.986H784.514V647.215H705.449V402.986Z" fill="#E2E9F7" stroke="#E2E9F7" stroke-width="3" stroke-miterlimit="10"/>
<path d="M654.066 402.986H733.13V647.215H654.066V402.986Z" fill="#FFFFF8" stroke="#E2E9F7" stroke-width="3" stroke-miterlimit="10"/>
<path d="M726.997 429.81H706.941V459.448" stroke="#E2E9F7" stroke-width="2" stroke-miterlimit="10"/>
<path d="M709.759 438.089H723.683V456.633H709.759V438.089Z" fill="#E2E9F7" stroke="#E2E9F7" stroke-width="3" stroke-miterlimit="10"/>
<path d="M726.997 532.137H706.941V561.776" stroke="#E2E9F7" stroke-width="2" stroke-miterlimit="10"/>
<path d="M709.759 540.416H723.683V558.961H709.759V540.416Z" fill="#E2E9F7" stroke="#E2E9F7" stroke-width="3" stroke-miterlimit="10"/>
<path d="M689.206 429.81H669.316V459.448" stroke="#E2E9F7" stroke-width="2" stroke-miterlimit="10"/>
<path d="M672.133 438.089H686.057V456.633H672.133V438.089Z" fill="#E2E9F7" stroke="#E2E9F7" stroke-width="3" stroke-miterlimit="10"/>
<path d="M689.206 531.641H669.316V561.279" stroke="#E2E9F7" stroke-width="2" stroke-miterlimit="10"/>
<path d="M672.133 539.92H686.057V558.465H672.133V539.92Z" fill="#E2E9F7" stroke="#E2E9F7" stroke-width="3" stroke-miterlimit="10"/>
<path d="M689.206 480.808H669.316V510.447" stroke="#E2E9F7" stroke-width="2" stroke-miterlimit="10"/>
<path d="M672.133 489.087H686.057V507.632H672.133V489.087Z" fill="#E2E9F7" stroke="#E2E9F7" stroke-width="3" stroke-miterlimit="10"/>
<path d="M689.206 575.022H669.316V604.661" stroke="#E2E9F7" stroke-width="2" stroke-miterlimit="10"/>
<path d="M672.133 583.301H686.057V601.846H672.133V583.301Z" fill="#E2E9F7" stroke="#E2E9F7" stroke-width="3" stroke-miterlimit="10"/>
<path d="M723.683 647.215V611.45H696.831" stroke="#E2E9F7" stroke-width="3" stroke-miterlimit="10"/>
<path d="M699.482 647.215V619.066" stroke="#E2E9F7" stroke-width="3" stroke-miterlimit="10"/>
<path d="M623.236 323.343H654.066" stroke="#FFFFF8" stroke-width="3" stroke-miterlimit="10"/>
<path d="M689.206 375.997H708.599" stroke="#FFFFF8" stroke-width="3" stroke-miterlimit="10"/>
<path d="M623.236 426.995H656.387" stroke="#FFFFF8" stroke-width="3" stroke-miterlimit="10"/>
<path d="M623.236 480.808H639.812" stroke="#FFFFF8" stroke-width="3" stroke-miterlimit="10"/>
<path d="M318.416 502.333H397.48V647.215H318.416V502.333Z" fill="#E2E9F7" stroke="#E2E9F7" stroke-width="3" stroke-miterlimit="10"/>
<path d="M200.565 502.333H345.931V647.215H200.565V502.333Z" fill="#FFFFF8" stroke="#E2E9F7" stroke-width="3" stroke-miterlimit="10"/>
<path d="M339.798 532.137H319.742V561.776" stroke="#E2E9F7" stroke-width="2" stroke-miterlimit="10"/>
<path d="M322.725 540.416H336.648V558.961H322.725V540.416Z" fill="#E2E9F7" stroke="#E2E9F7" stroke-width="3" stroke-miterlimit="10"/>
<path d="M302.172 531.641H282.116V561.279" stroke="#E2E9F7" stroke-width="2" stroke-miterlimit="10"/>
<path d="M285.099 539.92H299.022V558.465H285.099V539.92Z" fill="#E2E9F7" stroke="#E2E9F7" stroke-width="3" stroke-miterlimit="10"/>
<path d="M271.011 532.137H250.955V561.776" stroke="#E2E9F7" stroke-width="2" stroke-miterlimit="10"/>
<path d="M253.938 540.416H267.861V558.961H253.938V540.416Z" fill="#E2E9F7" stroke="#E2E9F7" stroke-width="3" stroke-miterlimit="10"/>
<path d="M233.385 531.641H213.329V561.279" stroke="#E2E9F7" stroke-width="2" stroke-miterlimit="10"/>
<path d="M216.312 539.92H230.235V558.465H216.312V539.92Z" fill="#E2E9F7" stroke="#E2E9F7" stroke-width="3" stroke-miterlimit="10"/>
<path d="M299.52 591.911H324.88V647.215H299.52V591.911Z" stroke="#E2E9F7" stroke-width="3" stroke-miterlimit="10"/>
<path d="M575.665 175.812L544.636 120.542H309.316L278.586 175.812H575.665Z" fill="#E2E9F7" stroke="#E2E9F7" stroke-width="2.84" stroke-miterlimit="10"/>
<path d="M445.118 120.542L468.19 175.812H278.585L309.316 120.542H445.118Z" fill="#EEF6FF" stroke="#E2E9F7" stroke-miterlimit="10"/>
<path d="M361.131 141.404H317.621V175.812" stroke="#E2E9F7" stroke-width="2.62" stroke-miterlimit="10"/>
<path d="M319.676 148.177H361.131V175.812H319.676V148.177Z" fill="#FFFFF8"/>
<path d="M421.216 141.404H377.706V175.812" stroke="#E2E9F7" stroke-width="2.62" stroke-miterlimit="10"/>
<path d="M379.761 148.177H421.216V175.812H379.761V148.177Z" fill="#FFFFF8"/>
<path d="M458.809 178.295H590.234V187.584H458.809V178.295Z" fill="#E2E9F7"/>
<path d="M461.295 180.779V185.101H587.748V180.779H461.295ZM456.322 175.812H592.721V190.068H456.322V175.812Z" fill="#E2E9F7"/>
<path d="M456.322 190.068L266.552 190.068V175.812L456.322 175.812V190.068Z" fill="#EEF6FF" stroke="#E2E9F7" stroke-miterlimit="10"/>
<path d="M623.235 258.932L645.48 214.06H682.741L707.77 258.932H623.235Z" fill="#E2E9F7"/>
<path d="M645.48 214.06H524.762L500.248 258.932H623.236L645.48 214.06Z" fill="#EEF6FF" stroke="#E2E9F7" stroke-miterlimit="10"/>
<path d="M550.47 228.83H575.83V257.641H550.47V228.83Z" fill="#FFFFF8" stroke="#E2E9F7" stroke-width="3" stroke-miterlimit="10"/>
<path d="M550.47 235.453H575.83V257.641H550.47V235.453Z" fill="#E2E9F7"/>
</g>
<defs>
<clipPath id="clip0_796_6373">
<rect width="787" height="652" fill="white" transform="matrix(-1 0 0 1 787 0)"/>
</clipPath>
</defs>
</svg>
