<svg width="24" height="24" viewBox="0 0 24 24" fill="none" xmlns="http://www.w3.org/2000/svg">
<path d="M3 6.375V8.25H7.848C7.99581 8.24997 8.14217 8.22081 8.27871 8.16418C8.41525 8.10756 8.53929 8.02459 8.64375 7.92L10.1888 6.375L8.64375 4.83C8.43297 4.61896 8.14702 4.50026 7.84875 4.5H4.875C4.37772 4.5 3.90081 4.69754 3.54917 5.04917C3.19754 5.40081 3 5.87772 3 6.375ZM1.5 6.375C1.5 5.47989 1.85558 4.62145 2.48851 3.98851C3.12145 3.35558 3.97989 3 4.875 3H7.848C8.19273 2.99998 8.53409 3.06785 8.85258 3.19975C9.17108 3.33166 9.46048 3.525 9.70425 3.76875L11.5605 5.625H19.125C20.0201 5.625 20.8785 5.98058 21.5115 6.61351C22.1444 7.24645 22.5 8.10489 22.5 9V17.625C22.5 18.5201 22.1444 19.3785 21.5115 20.0115C20.8785 20.6444 20.0201 21 19.125 21H4.875C3.97989 21 3.12145 20.6444 2.48851 20.0115C1.85558 19.3785 1.5 18.5201 1.5 17.625V6.375ZM3 9.75V17.625C3 18.1223 3.19754 18.5992 3.54917 18.9508C3.90081 19.3025 4.37772 19.5 4.875 19.5H19.125C19.6223 19.5 20.0992 19.3025 20.4508 18.9508C20.8025 18.5992 21 18.1223 21 17.625V9C21 8.50272 20.8025 8.02581 20.4508 7.67417C20.0992 7.32254 19.6223 7.125 19.125 7.125H11.5605L9.70425 8.98125C9.46048 9.225 9.17108 9.41834 8.85258 9.55025C8.53409 9.68215 8.19273 9.75002 7.848 9.75H3Z" fill="#A934BD"/>
</svg>
