<svg width="18" height="19" viewBox="0 0 18 19" fill="none" xmlns="http://www.w3.org/2000/svg">
<path d="M2.25 4.84375H3.75H15.75" stroke="#111827" stroke-width="1.25" stroke-linecap="round" stroke-linejoin="round"/>
<path d="M14.25 4.84375V15.3438C14.25 15.7416 14.092 16.1231 13.8107 16.4044C13.5294 16.6857 13.1478 16.8438 12.75 16.8438H5.25C4.85218 16.8438 4.47064 16.6857 4.18934 16.4044C3.90804 16.1231 3.75 15.7416 3.75 15.3438V4.84375M6 4.84375V3.34375C6 2.94593 6.15804 2.56439 6.43934 2.28309C6.72064 2.00179 7.10218 1.84375 7.5 1.84375H10.5C10.8978 1.84375 11.2794 2.00179 11.5607 2.28309C11.842 2.56439 12 2.94593 12 3.34375V4.84375" stroke="#111827" stroke-width="1.25" stroke-linecap="round" stroke-linejoin="round"/>
<path d="M7.5 8.59375V13.0938" stroke="#111827" stroke-width="1.25" stroke-linecap="round" stroke-linejoin="round"/>
<path d="M10.5 8.59375V13.0938" stroke="#111827" stroke-width="1.25" stroke-linecap="round" stroke-linejoin="round"/>
</svg>
