<svg width="20" height="20" viewBox="0 0 20 20" fill="none" xmlns="http://www.w3.org/2000/svg">
<path d="M5.03846 6.5H4.19231C3.74348 6.5 3.31303 6.6783 2.99567 6.99567C2.6783 7.31303 2.5 7.74348 2.5 8.19231V15.8077C2.5 16.2565 2.6783 16.687 2.99567 17.0043C3.31303 17.3217 3.74348 17.5 4.19231 17.5H11.8077C12.2565 17.5 12.687 17.3217 13.0043 17.0043C13.3217 16.687 13.5 16.2565 13.5 15.8077V14.9615" stroke="#454545" stroke-width="1.2" stroke-linecap="round" stroke-linejoin="round"/>
<path d="M12.9166 4.33342L15.6666 7.08339M16.9362 5.78632C17.2972 5.4253 17.5 4.93564 17.5 4.42508C17.5 3.91452 17.2972 3.42487 16.9362 3.06384C16.5751 2.70282 16.0855 2.5 15.5749 2.5C15.0644 2.5 14.5747 2.70282 14.2137 3.06384L6.5 10.75V13.5H9.24998L16.9362 5.78632Z" stroke="#454545" stroke-width="1.2" stroke-linecap="round" stroke-linejoin="round"/>
</svg>
