<svg width="20" height="21" viewBox="0 0 20 21" fill="none" xmlns="http://www.w3.org/2000/svg">
<path d="M5.03846 6.96094H4.19231C3.74348 6.96094 3.31303 7.13923 2.99567 7.4566C2.6783 7.77397 2.5 8.20442 2.5 8.65325V16.2686C2.5 16.7175 2.6783 17.1479 2.99567 17.4653C3.31303 17.7826 3.74348 17.9609 4.19231 17.9609H11.8077C12.2565 17.9609 12.687 17.7826 13.0043 17.4653C13.3217 17.1479 13.5 16.7175 13.5 16.2686V15.4225" stroke="white" stroke-width="1.5" stroke-linecap="round" stroke-linejoin="round"/>
<path d="M12.9166 4.79435L15.6666 7.54433M16.9362 6.24726C17.2972 5.88623 17.5 5.39658 17.5 4.88602C17.5 4.37546 17.2972 3.8858 16.9362 3.52478C16.5751 3.16376 16.0855 2.96094 15.5749 2.96094C15.0644 2.96094 14.5747 3.16376 14.2137 3.52478L6.5 11.211V13.9609H9.24998L16.9362 6.24726Z" stroke="white" stroke-width="1.5" stroke-linecap="round" stroke-linejoin="round"/>
</svg>
