<svg width="20" height="22" viewBox="0 0 20 22" fill="none" xmlns="http://www.w3.org/2000/svg">
<g clip-path="url(#clip0_548_17954)">
<path d="M10.0009 3.59465L9.11719 2.7109L10.0009 1.82715L10.8847 2.7109L10.0009 3.59465ZM11.2509 14.8446C11.2509 15.1762 11.1192 15.4941 10.8848 15.7285C10.6504 15.963 10.3325 16.0946 10.0009 16.0946C9.66942 16.0946 9.35147 15.963 9.11705 15.7285C8.88263 15.4941 8.75094 15.1762 8.75094 14.8446H11.2509ZM2.86719 8.9609L9.11719 2.7109L10.8847 4.4784L4.63469 10.7284L2.86719 8.9609ZM10.8847 2.7109L17.1347 8.9609L15.3672 10.7284L9.11719 4.4784L10.8847 2.7109ZM11.2509 3.59465V14.8446H8.75094V3.59465H11.2509Z" fill="white"/>
<path d="M1.25 17.3447V18.5947C1.25 19.2578 1.51339 19.8937 1.98223 20.3625C2.45107 20.8313 3.08696 21.0947 3.75 21.0947H16.25C16.913 21.0947 17.5489 20.8313 18.0178 20.3625C18.4866 19.8937 18.75 19.2578 18.75 18.5947V17.3447" stroke="white" stroke-width="2"/>
</g>
<defs>
<clipPath id="clip0_548_17954">
<rect width="20" height="21" fill="white" transform="translate(0 0.960938)"/>
</clipPath>
</defs>
</svg>
