<svg width="19" height="18" viewBox="0 0 19 18" fill="none" xmlns="http://www.w3.org/2000/svg">
<path d="M9.63125 0.250048C10.1588 0.246298 10.6862 0.462548 11.0887 0.895048L13.5263 3.45755C13.7925 3.74255 13.7925 4.20755 13.5263 4.49255C13.4653 4.55986 13.391 4.61366 13.308 4.65048C13.225 4.6873 13.1352 4.70632 13.0444 4.70632C12.9536 4.70632 12.8638 4.6873 12.7808 4.65048C12.6978 4.61366 12.6234 4.55986 12.5625 4.49255L10.25 2.0638V12.055C10.25 12.4388 9.97 12.75 9.625 12.75C9.28 12.75 9 12.4388 9 12.055V2.10505L6.725 4.49255C6.66407 4.55966 6.58979 4.61328 6.50691 4.64998C6.42403 4.68667 6.33439 4.70563 6.24375 4.70563C6.15311 4.70563 6.06347 4.68667 5.98059 4.64998C5.89771 4.61328 5.82343 4.55966 5.7625 4.49255C5.63382 4.35066 5.56254 4.16597 5.56254 3.97442C5.56254 3.78288 5.63382 3.59818 5.7625 3.4563L8.2 0.893798C8.3812 0.695147 8.60105 0.535585 8.84608 0.424891C9.09111 0.314196 9.35616 0.2547 9.625 0.250048H9.63125ZM4.225 7.75005C3.63375 7.75005 3.125 8.11755 3.01 8.6288L1.52375 15.1913C1.50964 15.2621 1.50169 15.3341 1.5 15.4063C1.5 16.01 2.055 16.5 2.7375 16.5H16.5125C16.5942 16.5 16.675 16.493 16.755 16.4788C17.4263 16.36 17.8613 15.7838 17.7275 15.1913L16.24 8.6288C16.125 8.11755 15.6162 7.75005 15.0275 7.75005H4.225ZM6.5 6.50005V7.75005H12.75V6.50005H15.0312C16.2137 6.50005 17.2312 7.25755 17.4637 8.3088L18.9513 15.0588C19.22 16.2775 18.3488 17.4625 17.0063 17.7063C16.8456 17.7368 16.6823 17.7514 16.5188 17.75H2.73125C1.36 17.75 0.25 16.7425 0.25 15.5C0.25 15.3509 0.26625 15.2038 0.29875 15.0588L1.78625 8.3088C2.0175 7.25755 3.03625 6.50005 4.2175 6.50005H6.5Z" fill="#454545"/>
</svg>
