<svg width="20" height="20" viewBox="0 0 20 20" fill="none" xmlns="http://www.w3.org/2000/svg">
<path d="M2.72949 12.7466C2.02116 11.8266 1.66699 11.3658 1.66699 9.99992C1.66699 8.63325 2.02116 8.17409 2.72949 7.25325C4.14366 5.41659 6.51533 3.33325 10.0003 3.33325C13.4853 3.33325 15.857 5.41659 17.2712 7.25325C17.9795 8.17492 18.3337 8.63409 18.3337 9.99992C18.3337 11.3666 17.9795 11.8258 17.2712 12.7466C15.857 14.5833 13.4853 16.6666 10.0003 16.6666C6.51533 16.6666 4.14366 14.5833 2.72949 12.7466Z" stroke="#7F7987" stroke-width="1.5"/>
<path d="M12.5 10C12.5 10.663 12.2366 11.2989 11.7678 11.7678C11.2989 12.2366 10.663 12.5 10 12.5C9.33696 12.5 8.70107 12.2366 8.23223 11.7678C7.76339 11.2989 7.5 10.663 7.5 10C7.5 9.33696 7.76339 8.70107 8.23223 8.23223C8.70107 7.76339 9.33696 7.5 10 7.5C10.663 7.5 11.2989 7.76339 11.7678 8.23223C12.2366 8.70107 12.5 9.33696 12.5 10Z" stroke="#7F7987" stroke-width="1.5"/>
</svg>
