<svg width="20" height="20" viewBox="0 0 20 20" fill="none" xmlns="http://www.w3.org/2000/svg">
<path d="M11.7572 15.6564C11.7572 16.1444 11.4372 16.7844 11.0292 17.0324L9.90122 17.7604C8.85322 18.4084 7.39722 17.6804 7.39722 16.3844V12.1044C7.39722 11.5364 7.07722 10.8084 6.74922 10.4084L3.6772 7.17642C3.2692 6.76842 2.94922 6.04842 2.94922 5.56042V3.70442C2.94922 2.73642 3.67723 2.00842 4.56523 2.00842H15.2372C16.1252 2.00842 16.8532 2.73641 16.8532 3.62441V5.40042C16.8532 6.04842 16.4452 6.85642 16.0452 7.25642" stroke="#737373" stroke-width="1.2" stroke-miterlimit="10" stroke-linecap="round" stroke-linejoin="round"/>
<path d="M13.1577 13.6147C14.5715 13.6147 15.7177 12.4686 15.7177 11.0548C15.7177 9.64091 14.5715 8.49475 13.1577 8.49475C11.7438 8.49475 10.5977 9.64091 10.5977 11.0548C10.5977 12.4686 11.7438 13.6147 13.1577 13.6147Z" stroke="#737373" stroke-width="1.2" stroke-linecap="round" stroke-linejoin="round"/>
<path d="M16.1984 14.0946L15.3984 13.2946" stroke="#737373" stroke-width="1.2" stroke-linecap="round" stroke-linejoin="round"/>
</svg>
