<svg width="33" height="32" viewBox="0 0 33 32" fill="none" xmlns="http://www.w3.org/2000/svg">
<rect x="0.900391" width="32" height="32" rx="4" fill="#A934BD"/>
<rect x="1.30039" y="0.4" width="31.2" height="31.2" rx="3.6" stroke="#C1BCBC" stroke-opacity="0.25" stroke-width="0.8"/>
<path d="M24.8986 13.2164V9.58437C24.8986 8.45637 24.3866 8.00037 23.1146 8.00037H19.8826C18.6106 8.00037 18.0986 8.45637 18.0986 9.58437V13.2084C18.0986 14.3444 18.6106 14.7924 19.8826 14.7924H23.1146C24.3866 14.8004 24.8986 14.3444 24.8986 13.2164Z" stroke="white" stroke-width="1.2" stroke-linecap="round" stroke-linejoin="round"/>
<path d="M24.8986 22.2164V18.9844C24.8986 17.7124 24.3866 17.2004 23.1146 17.2004H19.8826C18.6106 17.2004 18.0986 17.7124 18.0986 18.9844V22.2164C18.0986 23.4884 18.6106 24.0004 19.8826 24.0004H23.1146C24.3866 24.0004 24.8986 23.4884 24.8986 22.2164Z" stroke="white" stroke-width="1.2" stroke-linecap="round" stroke-linejoin="round"/>
<path d="M15.6984 13.2164V9.58437C15.6984 8.45637 15.1864 8.00037 13.9144 8.00037H10.6824C9.41044 8.00037 8.89844 8.45637 8.89844 9.58437V13.2084C8.89844 14.3444 9.41044 14.7924 10.6824 14.7924H13.9144C15.1864 14.8004 15.6984 14.3444 15.6984 13.2164Z" stroke="white" stroke-width="1.2" stroke-linecap="round" stroke-linejoin="round"/>
<path d="M15.6984 22.2164V18.9844C15.6984 17.7124 15.1864 17.2004 13.9144 17.2004H10.6824C9.41044 17.2004 8.89844 17.7124 8.89844 18.9844V22.2164C8.89844 23.4884 9.41044 24.0004 10.6824 24.0004H13.9144C15.1864 24.0004 15.6984 23.4884 15.6984 22.2164Z" stroke="white" stroke-width="1.2" stroke-linecap="round" stroke-linejoin="round"/>
</svg>
