<svg width="20" height="20" viewBox="0 0 20 20" fill="none" xmlns="http://www.w3.org/2000/svg">
<path d="M17.9982 7.216V3.584C17.9982 2.456 17.4862 2 16.2142 2H12.9822C11.7102 2 11.1982 2.456 11.1982 3.584V7.208C11.1982 8.344 11.7102 8.792 12.9822 8.792H16.2142C17.4862 8.8 17.9982 8.344 17.9982 7.216Z" stroke="#7D7D7D" stroke-width="1.2" stroke-linecap="round" stroke-linejoin="round"/>
<path d="M17.9982 16.2157V12.9837C17.9982 11.7117 17.4862 11.1997 16.2142 11.1997H12.9822C11.7102 11.1997 11.1982 11.7117 11.1982 12.9837V16.2157C11.1982 17.4877 11.7102 17.9997 12.9822 17.9997H16.2142C17.4862 17.9997 17.9982 17.4877 17.9982 16.2157Z" stroke="#7D7D7D" stroke-width="1.2" stroke-linecap="round" stroke-linejoin="round"/>
<path d="M8.79805 7.216V3.584C8.79805 2.456 8.28605 2 7.01405 2H3.78205C2.51005 2 1.99805 2.456 1.99805 3.584V7.208C1.99805 8.344 2.51005 8.792 3.78205 8.792H7.01405C8.28605 8.8 8.79805 8.344 8.79805 7.216Z" stroke="#7D7D7D" stroke-width="1.2" stroke-linecap="round" stroke-linejoin="round"/>
<path d="M8.79805 16.2157V12.9837C8.79805 11.7117 8.28605 11.1997 7.01405 11.1997H3.78205C2.51005 11.1997 1.99805 11.7117 1.99805 12.9837V16.2157C1.99805 17.4877 2.51005 17.9997 3.78205 17.9997H7.01405C8.28605 17.9997 8.79805 17.4877 8.79805 16.2157Z" stroke="#7D7D7D" stroke-width="1.2" stroke-linecap="round" stroke-linejoin="round"/>
</svg>
