<svg width="20" height="20" viewBox="0 0 20 20" fill="none" xmlns="http://www.w3.org/2000/svg">
<path d="M17.8986 7.21637V3.58437C17.8986 2.45637 17.3866 2.00037 16.1146 2.00037H12.8826C11.6106 2.00037 11.0986 2.45637 11.0986 3.58437V7.20837C11.0986 8.34437 11.6106 8.79237 12.8826 8.79237H16.1146C17.3866 8.80037 17.8986 8.34437 17.8986 7.21637Z" stroke="white" stroke-width="1.2" stroke-linecap="round" stroke-linejoin="round"/>
<path d="M17.8986 16.2164V12.9844C17.8986 11.7124 17.3866 11.2004 16.1146 11.2004H12.8826C11.6106 11.2004 11.0986 11.7124 11.0986 12.9844V16.2164C11.0986 17.4884 11.6106 18.0004 12.8826 18.0004H16.1146C17.3866 18.0004 17.8986 17.4884 17.8986 16.2164Z" stroke="white" stroke-width="1.2" stroke-linecap="round" stroke-linejoin="round"/>
<path d="M8.69844 7.21637V3.58437C8.69844 2.45637 8.18644 2.00037 6.91444 2.00037H3.68244C2.41044 2.00037 1.89844 2.45637 1.89844 3.58437V7.20837C1.89844 8.34437 2.41044 8.79237 3.68244 8.79237H6.91444C8.18644 8.80037 8.69844 8.34437 8.69844 7.21637Z" stroke="white" stroke-width="1.2" stroke-linecap="round" stroke-linejoin="round"/>
<path d="M8.69844 16.2164V12.9844C8.69844 11.7124 8.18644 11.2004 6.91444 11.2004H3.68244C2.41044 11.2004 1.89844 11.7124 1.89844 12.9844V16.2164C1.89844 17.4884 2.41044 18.0004 3.68244 18.0004H6.91444C8.18644 18.0004 8.69844 17.4884 8.69844 16.2164Z" stroke="white" stroke-width="1.2" stroke-linecap="round" stroke-linejoin="round"/>
</svg>
