<svg width="20" height="20" viewBox="0 0 20 20" fill="none" xmlns="http://www.w3.org/2000/svg">
<path d="M16.318 11.1997H3.67805C2.47805 11.1997 1.99805 11.7117 1.99805 12.9837V16.2157C1.99805 17.4877 2.47805 17.9997 3.67805 17.9997H16.318C17.518 17.9997 17.998 17.4877 17.998 16.2157V12.9837C17.998 11.7117 17.518 11.1997 16.318 11.1997Z" stroke="white" stroke-width="1.2" stroke-linecap="round" stroke-linejoin="round"/>
<path d="M16.318 2H3.67805C2.47805 2 1.99805 2.512 1.99805 3.784V7.016C1.99805 8.288 2.47805 8.8 3.67805 8.8H16.318C17.518 8.8 17.998 8.288 17.998 7.016V3.784C17.998 2.512 17.518 2 16.318 2Z" stroke="white" stroke-width="1.2" stroke-linecap="round" stroke-linejoin="round"/>
</svg>
