<svg width="20" height="20" viewBox="0 0 20 20" fill="none" xmlns="http://www.w3.org/2000/svg">
<path d="M16.2184 11.2004H3.57844C2.37844 11.2004 1.89844 11.7124 1.89844 12.9844V16.2164C1.89844 17.4884 2.37844 18.0004 3.57844 18.0004H16.2184C17.4184 18.0004 17.8984 17.4884 17.8984 16.2164V12.9844C17.8984 11.7124 17.4184 11.2004 16.2184 11.2004Z" stroke="#7D7D7D" stroke-width="1.2" stroke-linecap="round" stroke-linejoin="round"/>
<path d="M16.2184 2.00037H3.57844C2.37844 2.00037 1.89844 2.51237 1.89844 3.78437V7.01637C1.89844 8.28837 2.37844 8.80037 3.57844 8.80037H16.2184C17.4184 8.80037 17.8984 8.28837 17.8984 7.01637V3.78437C17.8984 2.51237 17.4184 2.00037 16.2184 2.00037Z" stroke="#7D7D7D" stroke-width="1.2" stroke-linecap="round" stroke-linejoin="round"/>
</svg>
