<svg width="20" height="20" viewBox="0 0 20 20" fill="none" xmlns="http://www.w3.org/2000/svg">
<path d="M10.0007 1.66699C6.33398 1.66699 3.33398 4.66699 3.33398 8.33366C3.33398 12.8337 9.16732 17.917 9.41732 18.167C9.58398 18.2503 9.83398 18.3337 10.0007 18.3337C10.1673 18.3337 10.4173 18.2503 10.584 18.167C10.834 17.917 16.6673 12.8337 16.6673 8.33366C16.6673 4.66699 13.6673 1.66699 10.0007 1.66699ZM10.0007 16.417C8.25065 14.7503 5.00065 11.167 5.00065 8.33366C5.00065 5.58366 7.25065 3.33366 10.0007 3.33366C12.7507 3.33366 15.0007 5.58366 15.0007 8.33366C15.0007 11.0837 11.7507 14.7503 10.0007 16.417ZM10.0007 5.00033C8.16732 5.00033 6.66732 6.50033 6.66732 8.33366C6.66732 10.167 8.16732 11.667 10.0007 11.667C11.834 11.667 13.334 10.167 13.334 8.33366C13.334 6.50033 11.834 5.00033 10.0007 5.00033ZM10.0007 10.0003C9.08398 10.0003 8.33398 9.25033 8.33398 8.33366C8.33398 7.41699 9.08398 6.66699 10.0007 6.66699C10.9173 6.66699 11.6673 7.41699 11.6673 8.33366C11.6673 9.25033 10.9173 10.0003 10.0007 10.0003Z" fill="black"/>
</svg>
