<svg width="18" height="19" viewBox="0 0 18 19" fill="none" xmlns="http://www.w3.org/2000/svg">
<path d="M9 2C5.7 2 3 4.7 3 8C3 12.05 8.25 16.625 8.475 16.85C8.625 16.925 8.85 17 9 17C9.15 17 9.375 16.925 9.525 16.85C9.75 16.625 15 12.05 15 8C15 4.7 12.3 2 9 2ZM9 15.275C7.425 13.775 4.5 10.55 4.5 8C4.5 5.525 6.525 3.5 9 3.5C11.475 3.5 13.5 5.525 13.5 8C13.5 10.475 10.575 13.775 9 15.275ZM9 5C7.35 5 6 6.35 6 8C6 9.65 7.35 11 9 11C10.65 11 12 9.65 12 8C12 6.35 10.65 5 9 5ZM9 9.5C8.175 9.5 7.5 8.825 7.5 8C7.5 7.175 8.175 6.5 9 6.5C9.825 6.5 10.5 7.175 10.5 8C10.5 8.825 9.825 9.5 9 9.5Z" fill="#737373"/>
</svg>
