<svg width="24" height="25" viewBox="0 0 24 25" fill="none" xmlns="http://www.w3.org/2000/svg">
<path d="M5.616 20.5C5.15533 20.5 4.771 20.346 4.463 20.038C4.155 19.73 4.00067 19.3453 4 18.884V6.116C4 5.65533 4.15433 5.271 4.463 4.963C4.77167 4.655 5.156 4.50067 5.616 4.5H11.819C11.9295 4.5 12.019 4.58954 12.019 4.7V5.3C12.019 5.41046 11.9295 5.5 11.819 5.5H5.616C5.462 5.5 5.32067 5.564 5.192 5.692C5.06333 5.82 4.99933 5.96133 5 6.116V18.885C5 19.0383 5.064 19.1793 5.192 19.308C5.32 19.4367 5.461 19.5007 5.615 19.5H11.819C11.9295 19.5 12.019 19.5895 12.019 19.7V20.3C12.019 20.4105 11.9295 20.5 11.819 20.5H5.616ZM16.6052 15.8957C16.5264 15.9746 16.3984 15.9738 16.3206 15.894L15.8979 15.4604C15.8214 15.382 15.8222 15.2568 15.8996 15.1794L17.7376 13.3414C17.8636 13.2154 17.7743 13 17.5962 13H9.392C9.28154 13 9.192 12.9105 9.192 12.8V12.2C9.192 12.0895 9.28154 12 9.392 12H17.5962C17.7743 12 17.8636 11.7846 17.7376 11.6586L15.8988 9.81984C15.8214 9.74235 15.8206 9.61695 15.8973 9.5386L16.3196 9.10661C16.3974 9.027 16.5253 9.02627 16.604 9.10498L19.8586 12.3586C19.9367 12.4367 19.9367 12.5633 19.8586 12.6414L16.6052 15.8957Z" fill="black"/>
</svg>
