<svg width="20" height="20" viewBox="0 0 20 20" fill="none" xmlns="http://www.w3.org/2000/svg">
<path d="M3.33268 16.6663C2.87435 16.6663 2.48213 16.5033 2.15602 16.1772C1.8299 15.8511 1.66657 15.4586 1.66602 14.9997V4.99967C1.66602 4.54134 1.82935 4.14912 2.15602 3.82301C2.48268 3.4969 2.8749 3.33356 3.33268 3.33301H16.666C17.1243 3.33301 17.5168 3.49634 17.8435 3.82301C18.1702 4.14967 18.3332 4.5419 18.3327 4.99967V14.9997C18.3327 15.458 18.1696 15.8505 17.8435 16.1772C17.5174 16.5038 17.1249 16.6669 16.666 16.6663H3.33268ZM16.666 6.66634L10.4368 10.5622C10.3674 10.6038 10.2946 10.6352 10.2185 10.6563C10.1424 10.6775 10.0693 10.6877 9.99935 10.6872C9.92935 10.6866 9.85657 10.6763 9.78102 10.6563C9.70546 10.6363 9.6324 10.605 9.56185 10.5622L3.33268 6.66634V14.9997H16.666V6.66634ZM9.99935 9.16634L16.666 4.99967H3.33268L9.99935 9.16634ZM3.33268 6.87467V5.64551V5.66634V5.65634V6.87467Z" fill="black"/>
</svg>
