<svg width="24" height="24" viewBox="0 0 24 24" fill="none" xmlns="http://www.w3.org/2000/svg">
<path d="M5.07692 2C3.38077 2 2 3.38077 2 5.07692V18.9231C2 20.6192 3.38077 22 5.07692 22H15.0769C15.8946 22 17.03 20.8192 18.3462 19.4762C18.5308 19.2885 18.7077 19.1123 18.8992 18.9231C19.0885 18.7323 19.2885 18.5308 19.4762 18.3462C20.82 17.0292 22 15.8946 22 15.0769V5.07692C22 3.38077 20.6192 2 18.9231 2H5.07692ZM5.07692 3.53846H18.9231C19.3311 3.53846 19.7224 3.70055 20.0109 3.98907C20.2995 4.27758 20.4615 4.6689 20.4615 5.07692V15.0769C20.4615 15.8423 19.6908 15.8462 18.9231 15.8462H16.6154C16.1915 15.8462 15.8462 16.1915 15.8462 16.6154V18.9715C15.8462 19.6538 15.8477 20.32 15.2931 20.4615H5.07692C4.6689 20.4615 4.27758 20.2995 3.98907 20.0109C3.70055 19.7224 3.53846 19.3311 3.53846 18.9231V5.07692C3.53846 4.6689 3.70055 4.27758 3.98907 3.98907C4.27758 3.70055 4.6689 3.53846 5.07692 3.53846ZM7.24077 8.15385C7.03676 8.17292 6.84868 8.27226 6.71791 8.43001C6.58714 8.58775 6.52439 8.79099 6.54346 8.995C6.56254 9.19901 6.66187 9.38709 6.81962 9.51786C6.97737 9.64863 7.1806 9.71138 7.38462 9.69231H16.6154C16.8194 9.69231 17.0151 9.61126 17.1593 9.46701C17.3036 9.32275 17.3846 9.12709 17.3846 8.92308C17.3846 8.71906 17.3036 8.52341 17.1593 8.37915C17.0151 8.23489 16.8194 8.15385 16.6154 8.15385H7.38462C7.36053 8.15271 7.3364 8.15271 7.31231 8.15385C7.28847 8.15274 7.2646 8.15274 7.24077 8.15385ZM7.24077 12C7.03676 12.0191 6.84868 12.1184 6.71791 12.2762C6.58714 12.4339 6.52439 12.6371 6.54346 12.8412C6.56254 13.0452 6.66187 13.2332 6.81962 13.364C6.97737 13.4948 7.1806 13.5575 7.38462 13.5385H15.0769C15.2809 13.5385 15.4766 13.4574 15.6209 13.3132C15.7651 13.1689 15.8462 12.9732 15.8462 12.7692C15.8462 12.5652 15.7651 12.3696 15.6209 12.2253C15.4766 12.081 15.2809 12 15.0769 12H7.38462C7.36053 11.9989 7.3364 11.9989 7.31231 12C7.28847 11.9989 7.2646 11.9989 7.24077 12Z" fill="#64748B"/>
</svg>
