<svg width="16" height="17" viewBox="0 0 16 17" fill="none" xmlns="http://www.w3.org/2000/svg">
<path d="M14.8333 14V6.40667C14.8333 5.52533 14.8333 5.084 14.604 4.74267C14.3747 4.40133 13.9687 4.23733 13.1573 3.90933L9.15733 2.296C8.668 2.09867 8.424 2 8.16667 2C7.90933 2 7.66533 2.09867 7.176 2.296L3.176 3.90933C2.36467 4.23733 1.95867 4.40133 1.72933 4.74267C1.5 5.084 1.5 5.52533 1.5 6.40667V14M10.8333 12.6667V14M5.5 12.6667V14" stroke="#737373" stroke-linecap="round" stroke-linejoin="round"/>
<path d="M5.16797 9.33366L5.32997 8.68699C5.57197 7.71699 5.6933 7.23166 6.0553 6.94966C6.41664 6.66699 6.91664 6.66699 7.91664 6.66699H8.4193C9.4193 6.66699 9.9193 6.66699 10.2806 6.94966C10.6426 7.23166 10.764 7.71633 11.006 8.68699L11.168 9.33366M5.83464 10.9937V11.0003M10.5013 10.9937V11.0003M11.5013 9.33366H4.83464C4.65782 9.33366 4.48826 9.4039 4.36323 9.52892C4.23821 9.65395 4.16797 9.82351 4.16797 10.0003V12.0003C4.16797 12.1771 4.23821 12.3467 4.36323 12.4717C4.48826 12.5968 4.65782 12.667 4.83464 12.667H11.5013C11.6781 12.667 11.8477 12.5968 11.9727 12.4717C12.0977 12.3467 12.168 12.1771 12.168 12.0003V10.0003C12.168 9.82351 12.0977 9.65395 11.9727 9.52892C11.8477 9.4039 11.6781 9.33366 11.5013 9.33366Z" stroke="#737373" stroke-linecap="round" stroke-linejoin="round"/>
</svg>
