<svg width="16" height="17" viewBox="0 0 16 17" fill="none" xmlns="http://www.w3.org/2000/svg">
<path d="M11.5 4.66667H12.1667C12.9033 4.66667 13.5 4.93 13.5 5.66667V7C13.5 7.35362 13.3595 7.69276 13.1095 7.94281C12.8594 8.19286 12.5203 8.33333 12.1667 8.33333H7.5C7.32319 8.33333 7.15362 8.40357 7.0286 8.5286C6.90357 8.65362 6.83333 8.82319 6.83333 9V14.3333C6.83333 14.5101 6.90357 14.6797 7.0286 14.8047C7.15362 14.9298 7.32319 15 7.5 15H8.16667M11.5 4.66667V3.66667C11.5 3.48986 11.4298 3.32029 11.3047 3.19526C11.1797 3.07024 11.0101 3 10.8333 3H4.16667C3.98986 3 3.82029 3.07024 3.69526 3.19526C3.57024 3.32029 3.5 3.48986 3.5 3.66667V5.66667C3.5 5.84348 3.57024 6.01305 3.69526 6.13807C3.82029 6.2631 3.98986 6.33333 4.16667 6.33333H10.8333C11.0101 6.33333 11.1797 6.2631 11.3047 6.13807C11.4298 6.01305 11.5 5.84348 11.5 5.66667V4.66667Z" stroke="#737373" stroke-linecap="round" stroke-linejoin="round"/>
</svg>
