<svg width="20" height="20" viewBox="0 0 20 20" fill="none" xmlns="http://www.w3.org/2000/svg">
<path fill-rule="evenodd" clip-rule="evenodd" d="M6.80919 13.1909C10.0134 16.3951 12.9825 16.7459 13.8542 16.7784C14.9075 16.8167 15.9825 15.9567 16.4475 15.0759C15.7059 14.2059 14.74 13.5309 13.6825 12.7992C13.0584 13.4226 12.2892 14.5809 11.265 14.1659C10.6825 13.9317 9.24419 13.2692 7.98752 12.0117C6.73085 10.7542 6.06835 9.31672 5.83252 8.73506C5.41752 7.70922 6.57919 6.93839 7.20335 6.31422C6.47169 5.23922 5.80835 4.24839 4.94002 3.54422C4.04669 4.01089 3.18169 5.07756 3.22085 6.14506C3.25335 7.01672 3.60419 9.98589 6.80919 13.1909ZM13.7925 18.4442C12.5925 18.4001 9.19169 17.9301 5.63002 14.3692C2.06919 10.8076 1.60002 7.40756 1.55502 6.20672C1.48835 4.37672 2.89002 2.59922 4.50919 1.90506C4.70417 1.82086 4.91769 1.78881 5.12879 1.81204C5.3399 1.83527 5.54134 1.91298 5.71335 2.03756C7.05335 3.01506 7.97752 4.49589 8.77169 5.65589C8.93689 5.8971 9.01258 6.18848 8.98564 6.47959C8.95871 6.77071 8.83085 7.04325 8.62419 7.25006L7.49419 8.38089C7.75669 8.96006 8.29085 9.95839 9.16585 10.8334C10.0409 11.7084 11.0392 12.2426 11.6192 12.5051L12.7484 11.3751C12.9557 11.1675 13.2294 11.0395 13.5216 11.0135C13.8138 10.9874 14.1059 11.065 14.3467 11.2326C15.53 12.0526 16.92 12.9634 17.9334 14.2609C18.068 14.4341 18.1537 14.6404 18.1814 14.8581C18.2091 15.0758 18.1779 15.2969 18.0909 15.4984C17.3934 17.1259 15.6284 18.5117 13.7925 18.4442Z" fill="black"/>
</svg>
