<svg width="24" height="25" viewBox="0 0 24 25" fill="none" xmlns="http://www.w3.org/2000/svg">
<path d="M11 20.4609C11 20.7262 11.1054 20.9805 11.2929 21.168C11.4804 21.3556 11.7348 21.4609 12 21.4609C12.2652 21.4609 12.5196 21.3556 12.7071 21.168C12.8946 20.9805 13 20.7262 13 20.4609V13.4609H20C20.2652 13.4609 20.5196 13.3556 20.7071 13.168C20.8946 12.9805 21 12.7262 21 12.4609C21 12.1957 20.8946 11.9414 20.7071 11.7538C20.5196 11.5663 20.2652 11.4609 20 11.4609H13V4.46094C13 4.19572 12.8946 3.94137 12.7071 3.75383C12.5196 3.56629 12.2652 3.46094 12 3.46094C11.7348 3.46094 11.4804 3.56629 11.2929 3.75383C11.1054 3.94137 11 4.19572 11 4.46094V11.4609H4C3.73478 11.4609 3.48043 11.5663 3.29289 11.7538C3.10536 11.9414 3 12.1957 3 12.4609C3 12.7262 3.10536 12.9805 3.29289 13.168C3.48043 13.3556 3.73478 13.4609 4 13.4609H11V20.4609Z" fill="white"/>
</svg>
