<svg width="73" height="74" viewBox="0 0 73 74" fill="none" xmlns="http://www.w3.org/2000/svg">
<path d="M36.9853 36.2814C36.8942 36.2814 36.8334 36.2814 36.7422 36.2814C36.5903 36.251 36.3776 36.251 36.1953 36.2814C27.3829 36.0079 20.728 29.0795 20.728 20.5406C20.728 11.8498 27.8083 4.76953 36.4991 4.76953C45.19 4.76953 52.2703 11.8498 52.2703 20.5406C52.2399 29.0795 45.5546 36.0079 37.0765 36.2814C37.0461 36.2814 37.0157 36.2814 36.9853 36.2814ZM36.4991 9.32766C30.3305 9.32766 25.2862 14.372 25.2862 20.5406C25.2862 26.6181 30.0266 31.5105 36.0737 31.7232C36.2257 31.6929 36.6511 31.6929 37.0461 31.7232C43.0021 31.4498 47.6817 26.5574 47.7121 20.5406C47.7121 14.372 42.6678 9.32766 36.4991 9.32766Z" fill="#FAFAFA"/>
<path d="M37.0155 69.495C31.0596 69.495 25.0733 67.9756 20.5455 64.9369C16.3217 62.1412 14.0122 58.3124 14.0122 54.1493C14.0122 49.9862 16.3217 46.127 20.5455 43.301C29.6618 37.2538 44.4301 37.2538 53.4856 43.301C57.679 46.0966 60.0189 49.9254 60.0189 54.0885C60.0189 58.2516 57.7094 62.1108 53.4856 64.9369C48.9274 67.9756 42.9715 69.495 37.0155 69.495ZM23.0677 47.1298C20.1505 49.0746 18.5703 51.5664 18.5703 54.1797C18.5703 56.7626 20.1809 59.2544 23.0677 61.1688C30.6342 66.2435 43.3969 66.2435 50.9634 61.1688C53.8806 59.224 55.4608 56.7322 55.4608 54.1189C55.4608 51.536 53.8502 49.0442 50.9634 47.1298C43.3969 42.0855 30.6342 42.0855 23.0677 47.1298Z" fill="#FAFAFA"/>
</svg>
