<svg width="20" height="20" viewBox="0 0 20 20" fill="none" xmlns="http://www.w3.org/2000/svg">
<g clip-path="url(#clip0_810_37135)">
<path d="M18.3346 18.3335H1.66797" stroke="black" stroke-width="1.5" stroke-linecap="round"/>
<path d="M14.1693 18.3337V5.00033C14.1693 3.42866 14.1693 2.64366 13.6809 2.15533C13.1926 1.66699 12.4076 1.66699 10.8359 1.66699H9.16927C7.5976 1.66699 6.8126 1.66699 6.32427 2.15533C5.83594 2.64366 5.83594 3.42866 5.83594 5.00033V18.3337" stroke="black" stroke-width="1.5"/>
<path opacity="0.5" d="M17.5 18.3337V9.58366C17.5 8.41283 17.5 7.82783 17.2192 7.40783C17.0975 7.22577 16.9412 7.06945 16.7592 6.94783C16.3392 6.66699 15.7533 6.66699 14.5833 6.66699M2.5 18.3337V9.58366C2.5 8.41283 2.5 7.82783 2.78083 7.40783C2.90246 7.22577 3.05877 7.06945 3.24083 6.94783C3.66083 6.66699 4.24667 6.66699 5.41667 6.66699" stroke="black" stroke-width="1.5"/>
<path d="M10 18.334V15.834" stroke="black" stroke-width="1.5" stroke-linecap="round"/>
<path opacity="0.5" d="M8.33594 4.16699H11.6693M8.33594 6.66699H11.6693M8.33594 9.16699H11.6693M8.33594 11.667H11.6693" stroke="black" stroke-width="1.5" stroke-linecap="round"/>
</g>
<defs>
<clipPath id="clip0_810_37135">
<rect width="20" height="20" fill="white"/>
</clipPath>
</defs>
</svg>
