<svg width="24" height="24" viewBox="0 0 24 24" fill="none" xmlns="http://www.w3.org/2000/svg">
<path d="M22 22H2" stroke="#A934BD" stroke-width="1.5" stroke-linecap="round"/>
<path d="M17 22V6C17 4.114 17 3.172 16.414 2.586C15.828 2 14.886 2 13 2H11C9.114 2 8.172 2 7.586 2.586C7 3.172 7 4.114 7 6V22" stroke="#A934BD" stroke-width="1.5"/>
<path opacity="0.5" d="M21 22V11.5C21 10.095 21 9.393 20.663 8.889C20.517 8.67053 20.3295 8.48296 20.111 8.337C19.607 8 18.904 8 17.5 8M3 22V11.5C3 10.095 3 9.393 3.337 8.889C3.48296 8.67053 3.67053 8.48296 3.889 8.337C4.393 8 5.096 8 6.5 8" stroke="#A934BD" stroke-width="1.5"/>
<path d="M12 22V19" stroke="#A934BD" stroke-width="1.5" stroke-linecap="round"/>
<path opacity="0.5" d="M10 5H14M10 8H14M10 11H14M10 14H14" stroke="#A934BD" stroke-width="1.5" stroke-linecap="round"/>
</svg>
