<svg width="19" height="19" viewBox="0 0 19 19" fill="none" xmlns="http://www.w3.org/2000/svg">
<path d="M16.6742 8.87394V11.809C16.6742 14.3771 15.2029 15.4777 12.9959 15.4777H5.63926C3.43227 15.4777 1.96094 14.3771 1.96094 11.809V6.67268C1.96094 4.10454 3.43227 3.00391 5.63926 3.00391H9.31758" stroke="#A934BD" stroke-width="1.32076" stroke-miterlimit="10" stroke-linecap="round" stroke-linejoin="round"/>
<path d="M5.63867 7.03906L7.94131 8.87345C8.69904 9.47513 9.94231 9.47513 10.7 8.87345" stroke="#A934BD" stroke-width="1.32076" stroke-miterlimit="10" stroke-linecap="round" stroke-linejoin="round"/>
<path d="M14.82 2.50414L15.026 2.92237C15.129 3.12783 15.3865 3.31861 15.6145 3.36263L15.8941 3.40666C16.7328 3.54607 16.9314 4.16242 16.3281 4.77144L16.0707 5.02825C15.9015 5.20435 15.8058 5.54188 15.8573 5.77668L15.8941 5.93077C16.1222 6.94335 15.5851 7.33223 14.7023 6.80393L14.511 6.69387C14.283 6.56179 13.9152 6.56179 13.6871 6.69387L13.4958 6.80393C12.6057 7.33957 12.0686 6.94335 12.3041 5.93077L12.3408 5.77668C12.3923 5.54188 12.2967 5.20435 12.1275 5.02825L11.87 4.77144C11.2668 4.16242 11.4654 3.54607 12.3041 3.40666L12.5836 3.36263C12.8043 3.32594 13.0691 3.12783 13.1721 2.92237L13.3781 2.50414C13.7754 1.70435 14.4228 1.70435 14.82 2.50414Z" stroke="#A934BD" stroke-width="1.32076" stroke-linecap="round" stroke-linejoin="round"/>
</svg>
