<svg width="19" height="18" viewBox="0 0 19 18" fill="none" xmlns="http://www.w3.org/2000/svg">
<path d="M16.7476 8.74054V11.644C16.7476 14.1846 15.292 15.2734 13.1088 15.2734H5.83118C3.6479 15.2734 2.19238 14.1846 2.19238 11.644V6.56294C2.19238 4.0224 3.6479 2.93359 5.83118 2.93359H9.46997" stroke="#84818A" stroke-width="1.30656" stroke-miterlimit="10" stroke-linecap="round" stroke-linejoin="round"/>
<path d="M5.83105 6.92773L8.10894 8.74241C8.85853 9.33762 10.0884 9.33762 10.838 8.74241" stroke="#84818A" stroke-width="1.30656" stroke-miterlimit="10" stroke-linecap="round" stroke-linejoin="round"/>
<path d="M14.9135 2.44105L15.1173 2.85479C15.2191 3.05804 15.4738 3.24677 15.6995 3.29032L15.976 3.33387C16.8057 3.47178 17.0021 4.08151 16.4054 4.68399L16.1507 4.93803C15.9833 5.11224 15.8887 5.44614 15.9396 5.67842L15.976 5.83086C16.2016 6.83256 15.6704 7.21726 14.797 6.69463L14.6078 6.58576C14.3822 6.4551 14.0183 6.4551 13.7927 6.58576L13.6035 6.69463C12.7229 7.22452 12.1917 6.83256 12.4245 5.83086L12.4609 5.67842C12.5119 5.44614 12.4173 5.11224 12.2499 4.93803L11.9952 4.68399C11.3984 4.08151 11.5949 3.47178 12.4245 3.33387L12.7011 3.29032C12.9194 3.25403 13.1814 3.05804 13.2833 2.85479L13.4871 2.44105C13.8801 1.64986 14.5205 1.64986 14.9135 2.44105Z" stroke="#84818A" stroke-width="1.30656" stroke-linecap="round" stroke-linejoin="round"/>
</svg>
