<svg width="14" height="15" viewBox="0 0 14 15" fill="none" xmlns="http://www.w3.org/2000/svg">
<g clip-path="url(#clip0_641_93776)">
<path d="M2.14547 4.31876H3.36377C3.60423 5.20348 4.51634 5.72575 5.40106 5.4853C5.96927 5.33086 6.41315 4.88698 6.56759 4.31876H11.9417C12.1877 4.31876 12.387 4.11941 12.387 3.87349C12.387 3.62756 12.1877 3.42821 11.9417 3.42821H6.56759C6.32714 2.54348 5.41502 2.0212 4.53031 2.26165C3.96209 2.41609 3.51821 2.85997 3.36377 3.42819H2.14547C1.89955 3.42819 1.7002 3.62754 1.7002 3.87347C1.7002 4.11939 1.89955 4.31876 2.14547 4.31876Z" fill="#454545"/>
<path d="M11.9417 7.10148H10.7234C10.4835 6.21689 9.57185 5.69432 8.68726 5.93427C8.11858 6.08854 7.67433 6.53278 7.52006 7.10148H2.14547C1.89955 7.10148 1.7002 7.30083 1.7002 7.54676C1.7002 7.79268 1.89955 7.99203 2.14547 7.99203H7.52006C7.76003 8.87662 8.67165 9.39919 9.55623 9.15924C10.1249 9.00497 10.5692 8.56073 10.7234 7.99203H11.9417C12.1877 7.99203 12.387 7.79268 12.387 7.54676C12.387 7.30083 12.1877 7.10148 11.9417 7.10148Z" fill="#454545"/>
<path d="M11.9417 10.7758H6.56759C6.32714 9.89113 5.41502 9.36885 4.53031 9.60931C3.96209 9.76375 3.51821 10.2076 3.36377 10.7758H2.14547C1.89955 10.7758 1.7002 10.9752 1.7002 11.2211C1.7002 11.467 1.89955 11.6664 2.14547 11.6664H3.36377C3.60423 12.5511 4.51634 13.0734 5.40106 12.8329C5.96927 12.6785 6.41315 12.2346 6.56759 11.6664H11.9417C12.1877 11.6664 12.387 11.467 12.387 11.2211C12.387 10.9752 12.1877 10.7758 11.9417 10.7758Z" fill="#454545"/>
</g>
<defs>
<clipPath id="clip0_641_93776">
<rect width="10.6879" height="10.6879" fill="white" transform="translate(1.69922 2.20312)"/>
</clipPath>
</defs>
</svg>
