<svg width="24" height="24" viewBox="0 0 24 24" fill="none" xmlns="http://www.w3.org/2000/svg">
<path d="M9.29235 5V8.0625M9.29235 15.9375V19M16.4977 5H7.49325C4.04452 5 3.08104 5.805 3 8.9375C4.73787 8.9375 6.14257 10.3113 6.14257 12C6.14257 13.6887 4.73787 15.0538 3 15.0625C3.08104 18.195 4.04452 19 7.49325 19H16.4977C20.0995 19 21 18.125 21 14.625V9.375C21 5.875 20.0995 5 16.4977 5Z" stroke="#64748B" stroke-width="1.5" stroke-linecap="round" stroke-linejoin="round"/>
<circle cx="14" cy="12" r="2" fill="#64748B"/>
<path d="M9.29235 5V8.0625M9.29235 15.9375V19M16.4977 5H7.49325C4.04452 5 3.08104 5.805 3 8.9375C4.73787 8.9375 6.14257 10.3113 6.14257 12C6.14257 13.6887 4.73787 15.0538 3 15.0625C3.08104 18.195 4.04452 19 7.49325 19H16.4977C20.0995 19 21 18.125 21 14.625V9.375C21 5.875 20.0995 5 16.4977 5Z" stroke="#64748B" stroke-width="1.5" stroke-linecap="round" stroke-linejoin="round"/>
<circle cx="14" cy="12" r="2" fill="#64748B"/>
</svg>
