<svg width="17" height="17" viewBox="0 0 17 17" fill="none" xmlns="http://www.w3.org/2000/svg">
<path d="M15.9698 8.33C15.3817 6.80882 14.3608 5.49331 13.0332 4.54604C11.7056 3.59878 10.1295 3.06129 8.49979 3C6.87005 3.06129 5.29398 3.59878 3.96639 4.54604C2.6388 5.49331 1.61787 6.80882 1.02979 8.33C0.990071 8.43985 0.990071 8.56015 1.02979 8.67C1.61787 10.1912 2.6388 11.5067 3.96639 12.454C5.29398 13.4012 6.87005 13.9387 8.49979 14C10.1295 13.9387 11.7056 13.4012 13.0332 12.454C14.3608 11.5067 15.3817 10.1912 15.9698 8.67C16.0095 8.56015 16.0095 8.43985 15.9698 8.33ZM8.49979 13C5.84979 13 3.04979 11.035 2.03479 8.5C3.04979 5.965 5.84979 4 8.49979 4C11.1498 4 13.9498 5.965 14.9648 8.5C13.9498 11.035 11.1498 13 8.49979 13Z" fill="black"/>
<path d="M8.5 5.5C7.90666 5.5 7.32664 5.67595 6.83329 6.00559C6.33994 6.33524 5.95543 6.80377 5.72836 7.35195C5.5013 7.90013 5.44189 8.50333 5.55765 9.08527C5.6734 9.66721 5.95912 10.2018 6.37868 10.6213C6.79824 11.0409 7.33279 11.3266 7.91473 11.4424C8.49667 11.5581 9.09987 11.4987 9.64805 11.2716C10.1962 11.0446 10.6648 10.6601 10.9944 10.1667C11.3241 9.67336 11.5 9.09334 11.5 8.5C11.5 7.70435 11.1839 6.94129 10.6213 6.37868C10.0587 5.81607 9.29565 5.5 8.5 5.5ZM8.5 10.5C8.10444 10.5 7.71776 10.3827 7.38886 10.1629C7.05996 9.94318 6.80362 9.63082 6.65224 9.26537C6.50087 8.89991 6.46126 8.49778 6.53843 8.10982C6.6156 7.72186 6.80608 7.36549 7.08579 7.08579C7.36549 6.80608 7.72186 6.6156 8.10982 6.53843C8.49778 6.46126 8.89992 6.50087 9.26537 6.65224C9.63082 6.80362 9.94318 7.05996 10.1629 7.38886C10.3827 7.71776 10.5 8.10444 10.5 8.5C10.5 9.03043 10.2893 9.53914 9.91421 9.91421C9.53914 10.2893 9.03043 10.5 8.5 10.5Z" fill="black"/>
</svg>
