<svg width="32" height="32" viewBox="0 0 32 32" fill="none" xmlns="http://www.w3.org/2000/svg">
<g clip-path="url(#clip0_724_1022)">
<path d="M19.2997 15.6411C18.3822 14.5183 16.6044 14.2376 15.4575 14.9955C15.2854 14.8832 15.1134 14.799 14.9413 14.7428C14.1958 14.4621 13.3069 14.5183 12.5614 14.9112C12.1886 15.1077 11.8732 15.3604 11.6152 15.6411C10.5829 16.8762 10.5256 18.6726 10.9557 19.8797C11.2711 20.7779 11.9306 21.4797 12.4467 21.9288L13.9664 20.5533L13.9091 20.4972C13.565 20.1884 13.0775 19.7112 12.9055 19.206C12.6187 18.42 12.7621 17.4095 13.2209 16.8762C13.2782 16.7919 13.3929 16.7077 13.5076 16.6516C14.1958 16.3148 14.9413 16.7919 15.2567 17.4095C15.3141 17.4937 15.3141 17.5779 15.3714 17.634C15.4575 17.7744 15.6008 17.6341 15.6295 17.5498C16.0023 16.6797 17.2926 16.0621 17.9234 17.0446C18.2962 17.6621 18.2675 18.5323 18.0381 19.1779C17.8661 19.6832 17.3786 20.1604 17.0345 20.4691C16.9772 20.5253 16.9198 20.5814 16.8338 20.6376L18.3535 22.013C18.3535 22.013 18.4109 21.9849 18.4109 21.9569C18.927 21.5077 19.6438 20.7779 19.9592 19.8235C20.3607 18.6165 20.332 16.82 19.2997 15.5849V15.6411Z" fill="#5CC37E"/>
<path d="M15.3289 22.0446L14.0312 23.3149L15.3289 24.5853L16.6265 23.3149L15.3289 22.0446Z" fill="#0E6735"/>
<path d="M22.996 14.7993L21.4476 16.259C21.7343 16.9326 21.935 17.6063 21.9637 18.3081C22.0211 18.9818 21.9637 19.6555 21.7343 20.3011C21.3902 21.3677 20.6447 22.3783 19.3831 23.5853L18.6089 24.3151C17.5766 25.2976 16.487 26.3081 15.4547 27.3467C14.5085 26.4204 13.5623 25.5221 12.616 24.6239L11.125 26.0274C12.3293 27.1502 13.5336 28.3011 14.7092 29.48L15.4261 30.1818L16.1429 29.48C17.4046 28.2449 18.7522 26.9818 20.0139 25.7748L20.7881 25.0449C21.8203 24.0625 23.1107 22.7151 23.6841 20.9186C23.9709 20.0484 24.0856 19.1221 24.0282 18.1677C23.9422 17.0169 23.5981 15.866 22.996 14.7993Z" fill="#0E6735"/>
<path d="M9.66206 24.6798L11.1531 23.2763C10.0635 22.2097 9.43267 21.2833 9.14593 20.329C8.65847 18.8412 8.88786 17.1851 9.77675 15.6412C10.7803 13.929 12.4434 12.6658 14.2499 12.2728C14.6226 12.1886 15.0241 12.1605 15.4255 12.1605C15.8269 12.1605 15.8269 12.1605 16.0563 12.1886C17.3466 12.329 18.6083 12.9184 19.6406 13.8167C19.8126 13.9851 19.9846 14.1255 20.1567 14.2939C20.2427 14.3781 20.3287 14.4904 20.4147 14.5746L21.9058 13.1711C21.8484 13.0869 21.7624 13.0026 21.6764 12.9184C21.4757 12.6939 21.275 12.4974 21.0456 12.3009C19.6979 11.0939 18.0061 10.336 16.3144 10.1395C15.4828 10.0553 14.6513 10.0833 13.8484 10.2798C11.4972 10.7851 9.31797 12.4132 8.05632 14.6026C6.88069 16.6237 6.59396 18.8693 7.25345 20.9184C7.76958 22.4904 8.80184 23.7255 9.74808 24.6518L9.66206 24.6798Z" fill="#5CC37E"/>
<path d="M15.3387 2.95347C16.629 2.95347 17.6613 3.99206 17.6613 5.22715C17.6613 6.46224 16.6004 7.50084 15.3387 7.50084C14.0771 7.50084 13.0161 6.46224 13.0161 5.22715C13.0161 3.99206 14.0771 2.95347 15.3387 2.95347ZM15.3387 1.12891C13.0161 1.12891 11.1523 2.95347 11.1523 5.22715C11.1523 7.50084 13.0161 9.3254 15.3387 9.3254C17.6613 9.3254 19.5251 7.50084 19.5251 5.22715C19.5251 2.95347 17.6326 1.12891 15.3387 1.12891Z" fill="#5CC37E"/>
</g>
<defs>
<clipPath id="clip0_724_1022">
<rect width="20.6452" height="32" fill="white" transform="translate(6)"/>
</clipPath>
</defs>
</svg>
