<?xml version="1.0" encoding="UTF-8"?>
<svg id="Layer_1" xmlns="http://www.w3.org/2000/svg" version="1.1" viewBox="0 0 337.2 114">
  <!-- Generator: Adobe Illustrator 29.0.1, SVG Export Plug-In . SVG Version: 2.1.0 Build 192)  -->
  <defs>
    <style>
      .st0 {
        fill: #5cc37e;
      }

      .st1 {
        fill: #0e6735;
      }
    </style>
  </defs>
  <path class="st0" d="M267.7867,62.7613h5.7078c.4971,0,.9.4029.9.9v19.3631c0,.4971-.4029.9-.9.9h-5.7078c-.4971,0-.9-.4029-.9-.9v-1.4516c-1.5957,2.0078-3.7539,3.0117-6.4766,3.0117-1.541,0-2.957-.2822-4.249-.8457-1.2939-.5635-2.4209-1.3545-3.3828-2.3721-.9639-1.0176-1.7129-2.2139-2.249-3.5889s-.8037-2.874-.8037-4.4971c0-1.5117.2607-2.9492.7832-4.3105.5225-1.3623,1.251-2.5508,2.1865-3.5693.9346-1.0166,2.0488-1.8213,3.3418-2.4131,1.292-.5908,2.7227-.8867,4.29-.8867,2.6406,0,4.8271.9219,6.5596,2.7637v-1.2035c0-.4971.4029-.9.9-.9ZM257.4804,73.2808c0,.6875.124,1.3271.3721,1.918.2471.5918.584,1.1074,1.0107,1.5479.4258.4395.9346.7832,1.5264,1.0312.5908.2471,1.2305.3711,1.918.3711.6602,0,1.2852-.124,1.877-.3711.5908-.248,1.0996-.5918,1.5264-1.0312.4258-.4404.7695-.9492,1.0312-1.5273.2617-.5771.3926-1.1963.3926-1.8555,0-.6602-.1309-1.2861-.3926-1.8779-.2617-.5908-.6055-1.1064-1.0312-1.5469-.4268-.4395-.9355-.7832-1.5264-1.0312-.5918-.2471-1.2168-.3711-1.877-.3711-.6875,0-1.3271.124-1.918.3711-.5918.248-1.1006.5918-1.5264,1.0312-.4268.4404-.7637.9424-1.0107,1.5059-.248.5645-.3721,1.1758-.3721,1.8359Z"/>
  <path class="st1" d="M112.5063,74.6978c0,3.2178,1.5122,4.8262,4.5381,4.8262,1.4559,0,2.5912-.5318,3.4052-1.5947.1776-.2319.4399-.3848.732-.3848h5.4675c.6452,0,1.085.6651.8344,1.2596-1.6866,4.001-5.1798,6.0011-10.4806,6.0011-1.7881,0-3.4238-.2686-4.9092-.8047s-2.7578-1.2998-3.8159-2.29c-1.0591-.9902-1.877-2.1719-2.4546-3.5479-.5776-1.375-.8662-2.9141-.8662-4.6201,0-1.7598.2744-3.3477.8247-4.7646.5498-1.416,1.334-2.6201,2.3516-3.6104,1.0171-.9893,2.2485-1.7529,3.6924-2.2891s3.0732-.8047,4.8887-.8047c1.7871,0,3.396.2686,4.8267.8047,1.4297.5361,2.6401,1.3135,3.6304,2.3311.9897,1.0176,1.7461,2.2627,2.269,3.7334.522,1.4717.7837,3.1289.7837,4.9707v.7842h-15.7178ZM121.2519,70.3658c-.2476-1.0449-.7563-1.8838-1.5264-2.5166-.77-.6318-1.7056-.9482-2.8052-.9482-1.1553,0-2.0977.3027-2.8257.9072-.729.6055-1.1899,1.458-1.3823,2.5576h8.5396Z"/>
  <path class="st0" d="M300.9641,74.6978c0,3.2178,1.5122,4.8262,4.5381,4.8262,1.4559,0,2.5912-.5318,3.4052-1.5947.1776-.2319.4399-.3848.732-.3848h5.4675c.6452,0,1.085.6651.8344,1.2596-1.6866,4.001-5.1798,6.0011-10.4806,6.0011-1.7881,0-3.4238-.2686-4.9092-.8047s-2.7578-1.2998-3.8159-2.29c-1.0591-.9902-1.877-2.1719-2.4546-3.5479-.5776-1.375-.8662-2.9141-.8662-4.6201,0-1.7598.2744-3.3477.8247-4.7646.5498-1.416,1.334-2.6201,2.3516-3.6104,1.0171-.9893,2.2485-1.7529,3.6924-2.2891s3.0732-.8047,4.8887-.8047c1.7871,0,3.396.2686,4.8267.8047,1.4297.5361,2.6401,1.3135,3.6304,2.3311.9897,1.0176,1.7461,2.2627,2.269,3.7334.522,1.4717.7837,3.1289.7837,4.9707v.7842h-15.7178ZM309.7097,70.3658c-.2476-1.0449-.7563-1.8838-1.5264-2.5166-.77-.6318-1.7056-.9482-2.8052-.9482-1.1553,0-2.0977.3027-2.8257.9072-.729.6055-1.1899,1.458-1.3823,2.5576h8.5396Z"/>
  <path class="st1" d="M187.137,74.6978c0,3.2178,1.5122,4.8262,4.5381,4.8262,1.4559,0,2.5912-.5318,3.4052-1.5947.1776-.2319.4399-.3848.732-.3848h5.4675c.6452,0,1.085.6651.8344,1.2596-1.6866,4.001-5.1798,6.0011-10.4806,6.0011-1.7881,0-3.4238-.2686-4.9092-.8047s-2.7578-1.2998-3.8159-2.29c-1.0591-.9902-1.877-2.1719-2.4546-3.5479-.5776-1.375-.8662-2.9141-.8662-4.6201,0-1.7598.2744-3.3477.8247-4.7646.5498-1.416,1.334-2.6201,2.3516-3.6104,1.0171-.9893,2.2485-1.7529,3.6924-2.2891s3.0732-.8047,4.8887-.8047c1.7871,0,3.396.2686,4.8267.8047,1.4297.5361,2.6401,1.3135,3.6304,2.3311.9897,1.0176,1.7461,2.2627,2.269,3.7334.522,1.4717.7837,3.1289.7837,4.9707v.7842h-15.7178ZM195.8826,70.3658c-.2476-1.0449-.7563-1.8838-1.5264-2.5166-.77-.6318-1.7056-.9482-2.8052-.9482-1.1553,0-2.0977.3027-2.8257.9072-.729.6055-1.1899,1.458-1.3823,2.5576h8.5396Z"/>
  <path class="st1" d="M101.3873,84.022h-7.7508c-.3058,0-.5907-.1553-.7564-.4123l-7.449-11.5516v11.0639c0,.4971-.4029.9-.9.9h-6.2854c-.4971,0-.9-.4029-.9-.9v-29.3055c0-.4971.4029-.9.9-.9h11.682c1.7329,0,3.2451.2549,4.5381.7627,1.2925.5098,2.3579,1.2041,3.1973,2.084.8384.8799,1.4712,1.8975,1.8975,3.0527s.6396,2.3926.6396,3.7129c0,2.3652-.5713,4.2842-1.7119,5.7549-1.1416,1.4717-2.8262,2.4688-5.0537,2.9912l8.6669,11.2993c.4541.592.032,1.4478-.7141,1.4478ZM85.4311,66.8189h1.5264c1.5947,0,2.8188-.3301,3.6719-.9902.8521-.6602,1.2788-1.6084,1.2788-2.8457,0-1.2383-.4268-2.1865-1.2788-2.8467-.853-.6602-2.0771-.9902-3.6719-.9902h-1.5264v7.6729Z"/>
  <path class="st0" d="M208.0552,82.8739l4.9747-29.3055c.0735-.4327.4484-.7494.8873-.7494h6.6205c.375,0,.7107.2325.8425.5835l6.0103,16.0005,5.9691-15.9986c.1313-.352.4675-.5854.8432-.5854h6.619c.4389,0,.8138.3166.8873.7494l4.9747,29.3055c.0933.5494-.3301,1.0506-.8873,1.0506h-6.204c-.4456,0-.8241-.326-.8901-.7667l-2.5668-17.1376-7.1137,17.3458c-.1386.3379-.4675.5585-.8327.5585h-1.9988c-.371,0-.704-.2277-.8387-.5734l-6.7484-17.3309-2.5668,17.1376c-.066.4407-.4445.7667-.8901.7667h-6.204c-.5572,0-.9806-.5012-.8873-1.0506Z"/>
  <g>
    <g>
      <g>
        <path class="st0" d="M46.3712,55.7217c-3.2-4-9.4-5-13.4-2.3-.6-.4-1.2-.7-1.8-.9-2.6-1-5.7-.8-8.3.6-1.3.7-2.4,1.6-3.3,2.6-3.6,4.4-3.8,10.8-2.3,15.1,1.1,3.2,3.4,5.7,5.2,7.3l5.3-4.9-.2-.2c-1.2-1.1-2.9-2.8-3.5-4.6-1-2.8-.5-6.4,1.1-8.3.2-.3.6-.6,1-.8,2.4-1.2,5,.5,6.1,2.7.2.3.2.6.4.8.3.5.8,0,.9-.3,1.3-3.1,5.8-5.3,8-1.8,1.3,2.2,1.2,5.3.4,7.6-.6,1.8-2.3,3.5-3.5,4.6-.2.2-.4.4-.7.6l5.3,4.9s.2-.1.2-.2c1.8-1.6,4.3-4.2,5.4-7.6,1.4-4.3,1.3-10.7-2.3-15.1h0v.2Z"/>
        <rect class="st1" x="29.3338" y="79.8599" width="6.4" height="6.4" transform="translate(-49.2033 47.3326) rotate(-45)"/>
        <g>
          <path class="st1" d="M59.2712,52.7217l-5.4,5.2c1,2.4,1.7,4.8,1.8,7.3.2,2.4,0,4.8-.8,7.1-1.2,3.8-3.8,7.4-8.2,11.7l-2.7,2.6c-3.6,3.5-7.4,7.1-11,10.8-3.3-3.3-6.6-6.5-9.9-9.7l-5.2,5c4.2,4,8.4,8.1,12.5,12.3l2.5,2.5,2.5-2.5c4.4-4.4,9.1-8.9,13.5-13.2l2.7-2.6c3.6-3.5,8.1-8.3,10.1-14.7,1-3.1,1.4-6.4,1.2-9.8-.3-4.1-1.5-8.2-3.6-12h0Z"/>
          <path class="st0" d="M12.7712,87.9217l5.2-5c-3.8-3.8-6-7.1-7-10.5-1.7-5.3-.9-11.2,2.2-16.7,3.5-6.1,9.3-10.6,15.6-12,1.3-.3,2.7-.4,4.1-.4s1.4,0,2.2.1c4.5.5,8.9,2.6,12.5,5.8.6.6,1.2,1.1,1.8,1.7.3.3.6.7.9,1l5.2-5c-.2-.3-.5-.6-.8-.9-.7-.8-1.4-1.5-2.2-2.2-4.7-4.3-10.6-7-16.5-7.7-2.9-.3-5.8-.2-8.6.5-8.2,1.8-15.8,7.6-20.2,15.4-4.1,7.2-5.1,15.2-2.8,22.5,1.8,5.6,5.4,10,8.7,13.3h0l-.3.1Z"/>
        </g>
      </g>
      <path class="st0" d="M32.5712,10.5217c4.5,0,8.1,3.7,8.1,8.1s-3.7,8.1-8.1,8.1-8.1-3.7-8.1-8.1,3.7-8.1,8.1-8.1M32.5712,4.0217c-8.1,0-14.6,6.5-14.6,14.6s6.5,14.6,14.6,14.6,14.6-6.5,14.6-14.6-6.6-14.6-14.6-14.6h0Z"/>
    </g>
    <path class="st1" d="M141.1712,69.0217v14.1c0,.5-.4.9-.9.9h-5.7c-.5,0-.9-.4-.9-.9v-14.1h-1.6c-.5,0-.9-.4-.9-.9v-4.4c0-.5.4-.9.9-.9h1.6v-5.5c0-.5.4-.9.9-.9h5.7c.5,0,.9.4.9.9v5.5h3.4c.5,0,.9.4.9.9v4.4c0,.5-.4.9-.9.9h-3.4Z"/>
    <path class="st0" d="M287.2136,69.0217v14.1c0,.5-.4.9-.9.9h-5.7c-.5,0-.9-.4-.9-.9v-14.1h-1.6c-.5,0-.9-.4-.9-.9v-4.4c0-.5.4-.9.9-.9h1.6v-5.5c0-.5.4-.9.9-.9h5.7c.5,0,.9.4.9.9v5.5h3.4c.5,0,.9.4.9.9v4.4c0,.5-.4.9-.9.9h-3.4Z"/>
    <path class="st1" d="M148.2712,54.5217c0-.6.1-1.1.3-1.6s.5-1,.9-1.3c.4-.4.8-.7,1.4-.9s1.1-.3,1.6-.3,1.1.1,1.6.3,1,.5,1.4.9.7.8.9,1.3.3,1.1.3,1.6-.1,1.1-.3,1.6-.5,1-.9,1.3-.8.7-1.4.9c-.5.2-1.1.3-1.6.3s-1.1-.1-1.6-.3-1-.5-1.4-.9-.7-.8-.9-1.3-.3-1.1-.3-1.6ZM156.3712,63.6217v19.5c0,.5-.4.9-.9.9h-5.7c-.5,0-.9-.4-.9-.9v-19.5c0-.5.4-.9.9-.9h5.7c.5,0,.9.4.9.9Z"/>
    <path class="st1" d="M162.3712,62.7217h5.7c.5,0,.9.4.9.9v2.6c.8-1.3,1.8-2.2,2.9-2.9s2.5-1,4.1-1h1.4v5.8c0,.6-.6,1.1-1.2.9-.6-.2-1.3-.3-2-.3-1.8,0-3.1.5-3.9,1.6s-1.3,2.6-1.3,4.6v8.2c0,.5-.4.9-.9.9h-5.7c-.5,0-.9-.4-.9-.9v-19.5c0-.5.4-.9.9-.9h0Z"/>
    <g>
      <path class="st0" d="M322.2898,69.1717c.3,0,.6,0,.8-.1.4-.1.6-.4.6-.8s0-.4-.3-.5c-.2-.1-.5-.2-.9-.3l-.7-.2c-.7-.2-1.1-.3-1.4-.5-.4-.3-.7-.8-.7-1.4s.2-1.1.6-1.4,1-.6,1.9-.6,1.3.2,1.7.5c.5.4.7.9.8,1.6h-1.3c0-.4-.2-.7-.5-.8-.2-.1-.5-.2-.8-.2s-.6,0-.8.2-.3.3-.3.6.1.4.3.5c.1,0,.4.2.8.3l1.1.3c.5.1.9.3,1.1.5.4.3.6.7.6,1.3s-.2,1.1-.7,1.5-1.1.6-1.9.6-1.5-.2-2-.6-.7-.9-.7-1.6h1.3c0,.3.1.5.2.7.2.3.6.4,1.1.4h.1Z"/>
      <path class="st0" d="M327.7898,70.0717h-1.3v-6.5h2l1.2,5.1,1.2-5.1h1.9v6.5h-1.3v-5.4l-1.2,5.4h-1.3l-1.2-5.4v5.4h0Z"/>
    </g>
  </g>
</svg>